<?xml version="1.0" standalone="no"?>
<!DOCTYPE svg PUBLIC "-//W3C//DTD SVG 20010904//EN"
 "http://www.w3.org/TR/2001/REC-SVG-20010904/DTD/svg10.dtd">
<svg version="1.0" xmlns="http://www.w3.org/2000/svg"
 width="590.000000pt" height="590.000000pt" viewBox="0 0 590.000000 590.000000"
 preserveAspectRatio="xMidYMid meet">
<metadata>
Created by potrace 1.14, written by Peter Selinger 2001-2017
</metadata>
<g transform="translate(0.000000,590.000000) scale(0.100000,-0.100000)"
fill="#000000" stroke="none">
<path d="M0 2950 l0 -2950 2950 0 2950 0 0 2950 0 2950 -2950 0 -2950 0 0
-2950z m3157 2048 c-3 -8 -6 -5 -6 6 -1 11 2 17 5 13 3 -3 4 -12 1 -19z m200
-10 c-3 -8 -6 -5 -6 6 -1 11 2 17 5 13 3 -3 4 -12 1 -19z m-522 -8 c3 -5 1
-10 -4 -10 -6 0 -11 5 -11 10 0 6 2 10 4 10 3 0 8 -4 11 -10z m425 -24 c0 -3
-4 -8 -10 -11 -5 -3 -10 -1 -10 4 0 6 5 11 10 11 6 0 10 -2 10 -4z m27 -28
c-3 -7 -5 -2 -5 12 0 14 2 19 5 13 2 -7 2 -19 0 -25z m-613 6 c3 -8 2 -12 -4
-9 -6 3 -10 10 -10 16 0 14 7 11 14 -7z m-87 -70 c-3 -3 -12 -4 -19 -1 -8 3
-5 6 6 6 11 1 17 -2 13 -5z m193 -14 c6 -11 7 -20 2 -20 -6 0 -12 9 -15 20 -3
11 -3 20 -1 20 2 0 8 -9 14 -20z m-27 -30 c3 -11 1 -20 -4 -20 -5 0 -9 9 -9
20 0 11 2 20 4 20 2 0 6 -9 9 -20z m732 0 c3 -5 1 -10 -4 -10 -6 0 -11 5 -11
10 0 6 2 10 4 10 3 0 8 -4 11 -10z m-140 -20 c3 -5 1 -10 -4 -10 -6 0 -11 5
-11 10 0 6 2 10 4 10 3 0 8 -4 11 -10z m-495 -30 c0 -5 -2 -10 -4 -10 -3 0 -8
5 -11 10 -3 6 -1 10 4 10 6 0 11 -4 11 -10z m67 -22 c-3 -8 -6 -5 -6 6 -1 11
2 17 5 13 3 -3 4 -12 1 -19z m263 7 c0 -8 -2 -15 -4 -15 -2 0 -6 7 -10 15 -3
8 -1 15 4 15 6 0 10 -7 10 -15z m34 0 c3 -8 1 -15 -4 -15 -6 0 -10 7 -10 15 0
8 2 15 4 15 2 0 6 -7 10 -15z m-454 -36 c0 -5 -4 -9 -10 -9 -5 0 -10 7 -10 16
0 8 5 12 10 9 6 -3 10 -10 10 -16z m93 -36 c-7 -2 -19 -2 -25 0 -7 3 -2 5 12
5 14 0 19 -2 13 -5z m374 1 c-3 -3 -12 -4 -19 -1 -8 3 -5 6 6 6 11 1 17 -2 13
-5z m360 -46 c-3 -8 -6 -5 -6 6 -1 11 2 17 5 13 3 -3 4 -12 1 -19z m-570 -14
c-3 -3 -12 -4 -19 -1 -8 3 -5 6 6 6 11 1 17 -2 13 -5z m600 -36 c-3 -8 -6 -5
-6 6 -1 11 2 17 5 13 3 -3 4 -12 1 -19z m-493 -3 c3 -8 1 -15 -4 -15 -6 0 -10
7 -10 15 0 8 2 15 4 15 2 0 6 -7 10 -15z m106 -16 c0 -5 -4 -9 -8 -9 -5 0 -9
7 -9 15 0 8 4 12 9 9 4 -3 8 -9 8 -15z m-295 1 c3 -5 1 -10 -4 -10 -6 0 -11 5
-11 10 0 6 2 10 4 10 3 0 8 -4 11 -10z m118 -7 c-7 -2 -19 -2 -25 0 -7 3 -2 5
12 5 14 0 19 -2 13 -5z m-19 -38 c3 -8 1 -15 -4 -15 -6 0 -10 7 -10 15 0 8 2
15 4 15 2 0 6 -7 10 -15z m31 -45 c3 -5 1 -10 -4 -10 -6 0 -11 5 -11 10 0 6 2
10 4 10 3 0 8 -4 11 -10z m138 -7 c-7 -2 -19 -2 -25 0 -7 3 -2 5 12 5 14 0 19
-2 13 -5z m402 -3 c3 -5 1 -10 -4 -10 -6 0 -11 5 -11 10 0 6 2 10 4 10 3 0 8
-4 11 -10z m-600 -80 c3 -5 1 -10 -4 -10 -6 0 -11 5 -11 10 0 6 2 10 4 10 3 0
8 -4 11 -10z m135 -30 c0 -5 -2 -10 -4 -10 -3 0 -8 5 -11 10 -3 6 -1 10 4 10
6 0 11 -4 11 -10z m-715 -20 c3 -5 1 -10 -4 -10 -6 0 -11 5 -11 10 0 6 2 10 4
10 3 0 8 -4 11 -10z m620 0 c3 -5 1 -10 -4 -10 -6 0 -11 5 -11 10 0 6 2 10 4
10 3 0 8 -4 11 -10z m60 0 c3 -5 1 -10 -4 -10 -6 0 -11 5 -11 10 0 6 2 10 4
10 3 0 8 -4 11 -10z m5 -34 c0 -3 -4 -8 -10 -11 -5 -3 -10 -1 -10 4 0 6 5 11
10 11 6 0 10 -2 10 -4z m627 -48 c-3 -7 -5 -2 -5 12 0 14 2 19 5 13 2 -7 2
-19 0 -25z m-1402 -18 c3 -5 1 -10 -4 -10 -6 0 -11 5 -11 10 0 6 2 10 4 10 3
0 8 -4 11 -10z m680 -10 c3 -5 1 -10 -4 -10 -6 0 -11 5 -11 10 0 6 2 10 4 10
3 0 8 -4 11 -10z m88 -7 c-7 -2 -19 -2 -25 0 -7 3 -2 5 12 5 14 0 19 -2 13 -5z
m634 -15 c-3 -8 -6 -5 -6 6 -1 11 2 17 5 13 3 -3 4 -12 1 -19z m-1397 -33 c0
-5 -5 -3 -10 5 -5 8 -10 20 -10 25 0 6 5 3 10 -5 5 -8 10 -19 10 -25z m567 3
c-3 -8 -6 -5 -6 6 -1 11 2 17 5 13 3 -3 4 -12 1 -19z m230 0 c-3 -8 -6 -5 -6
6 -1 11 2 17 5 13 3 -3 4 -12 1 -19z m707 7 c3 -8 1 -15 -4 -15 -6 0 -10 7
-10 15 0 8 2 15 4 15 2 0 6 -7 10 -15z m-929 -45 c3 -5 1 -10 -4 -10 -6 0 -11
5 -11 10 0 6 2 10 4 10 3 0 8 -4 11 -10z m185 0 c8 -5 11 -10 5 -10 -5 0 -17
5 -25 10 -8 5 -10 10 -5 10 6 0 17 -5 25 -10z m-860 -20 c0 -5 -4 -10 -10 -10
-5 0 -10 5 -10 10 0 6 5 10 10 10 6 0 10 -4 10 -10z m60 -6 c0 -2 -7 -4 -15
-4 -8 0 -15 4 -15 10 0 5 7 7 15 4 8 -4 15 -8 15 -10z m710 -4 c0 -5 -7 -7
-15 -4 -8 4 -15 8 -15 10 0 2 7 4 15 4 8 0 15 -4 15 -10z m110 0 c0 -5 -4 -10
-10 -10 -5 0 -10 5 -10 10 0 6 5 10 10 10 6 0 10 -4 10 -10z m-247 -7 c-7 -2
-19 -2 -25 0 -7 3 -2 5 12 5 14 0 19 -2 13 -5z m-563 -46 c0 -5 -4 -5 -10 -2
-5 3 -10 14 -10 23 0 15 2 15 10 2 5 -8 10 -19 10 -23z m1470 13 c0 -11 -2
-20 -4 -20 -2 0 -6 9 -9 20 -3 11 -1 20 4 20 5 0 9 -9 9 -20z m-923 -42 c-3
-7 -5 -2 -5 12 0 14 2 19 5 13 2 -7 2 -19 0 -25z m193 22 c0 -5 -2 -10 -4 -10
-3 0 -8 5 -11 10 -3 6 -1 10 4 10 6 0 11 -4 11 -10z m797 -37 c-3 -10 -5 -2
-5 17 0 19 2 27 5 18 2 -10 2 -26 0 -35z m-730 5 c-3 -7 -5 -2 -5 12 0 14 2
19 5 13 2 -7 2 -19 0 -25z m703 11 c0 -6 -4 -7 -10 -4 -5 3 -10 11 -10 16 0 6
5 7 10 4 6 -3 10 -11 10 -16z m-630 -30 c0 -5 -4 -9 -10 -9 -5 0 -10 7 -10 16
0 8 5 12 10 9 6 -3 10 -10 10 -16z m64 6 c-4 -8 -8 -15 -10 -15 -2 0 -4 7 -4
15 0 8 4 15 10 15 5 0 7 -7 4 -15z m623 -7 c-3 -8 -6 -5 -6 6 -1 11 2 17 5 13
3 -3 4 -12 1 -19z m-947 -24 c0 -8 -4 -14 -8 -14 -4 0 -8 9 -8 19 0 11 4 17 8
15 4 -3 8 -12 8 -20z m418 -5 c-3 -8 -7 -3 -11 10 -4 17 -3 21 5 13 5 -5 8
-16 6 -23z m-598 -9 c8 -5 11 -10 5 -10 -5 0 -17 5 -25 10 -8 5 -10 10 -5 10
6 0 17 -5 25 -10z m207 -47 c-3 -10 -5 -4 -5 12 0 17 2 24 5 18 2 -7 2 -21 0
-30z m-97 17 c0 -5 -2 -10 -4 -10 -3 0 -8 5 -11 10 -3 6 -1 10 4 10 6 0 11 -4
11 -10z m293 -30 c3 -11 1 -23 -4 -26 -5 -3 -9 6 -9 20 0 31 6 34 13 6z m137
-10 c0 -11 -2 -20 -4 -20 -2 0 -6 9 -9 20 -3 11 -1 20 4 20 5 0 9 -9 9 -20z
m-525 -10 c3 -5 1 -10 -4 -10 -6 0 -11 5 -11 10 0 6 2 10 4 10 3 0 8 -4 11
-10z m1030 0 c3 -5 1 -10 -4 -10 -6 0 -11 5 -11 10 0 6 2 10 4 10 3 0 8 -4 11
-10z m-1615 -4 c0 -3 -4 -8 -10 -11 -5 -3 -10 -1 -10 4 0 6 5 11 10 11 6 0 10
-2 10 -4z m97 -38 c-3 -8 -6 -5 -6 6 -1 11 2 17 5 13 3 -3 4 -12 1 -19z m1083
12 c0 -5 -4 -10 -10 -10 -5 0 -10 5 -10 10 0 6 5 10 10 10 6 0 10 -4 10 -10z
m587 -22 c-3 -8 -6 -5 -6 6 -1 11 2 17 5 13 3 -3 4 -12 1 -19z m-682 -8 c3 -5
-1 -10 -9 -10 -9 0 -16 5 -16 10 0 6 4 10 9 10 6 0 13 -4 16 -10z m712 -22
c-3 -8 -6 -5 -6 6 -1 11 2 17 5 13 3 -3 4 -12 1 -19z m-1047 -23 c0 -14 -2
-25 -4 -25 -2 0 -6 11 -8 25 -3 14 -1 25 3 25 5 0 9 -11 9 -25z m-810 0 c0 -8
-2 -15 -4 -15 -2 0 -6 7 -10 15 -3 8 -1 15 4 15 6 0 10 -7 10 -15z m1857 -17
c-3 -8 -6 -5 -6 6 -1 11 2 17 5 13 3 -3 4 -12 1 -19z m-622 2 c3 -5 1 -10 -4
-10 -6 0 -11 5 -11 10 0 6 2 10 4 10 3 0 8 -4 11 -10z m-1205 -10 c0 -5 -2
-10 -4 -10 -3 0 -8 5 -11 10 -3 6 -1 10 4 10 6 0 11 -4 11 -10z m703 3 c-7 -2
-19 -2 -25 0 -7 3 -2 5 12 5 14 0 19 -2 13 -5z m504 -50 c-3 -10 -5 -4 -5 12
0 17 2 24 5 18 2 -7 2 -21 0 -30z m-1280 -5 c-3 -7 -5 -2 -5 12 0 14 2 19 5
13 2 -7 2 -19 0 -25z m693 2 c0 -5 -4 -10 -10 -10 -5 0 -10 5 -10 10 0 6 5 10
10 10 6 0 10 -4 10 -10z m65 0 c3 -5 1 -10 -4 -10 -6 0 -11 5 -11 10 0 6 2 10
4 10 3 0 8 -4 11 -10z m1280 0 c3 -5 1 -10 -4 -10 -6 0 -11 5 -11 10 0 6 2 10
4 10 3 0 8 -4 11 -10z m-2038 -52 c-3 -7 -5 -2 -5 12 0 14 2 19 5 13 2 -7 2
-19 0 -25z m1183 22 c0 -5 -4 -10 -10 -10 -5 0 -10 5 -10 10 0 6 5 10 10 10 6
0 10 -4 10 -10z m33 -10 c3 -11 1 -20 -4 -20 -5 0 -9 9 -9 20 0 11 2 20 4 20
2 0 6 -9 9 -20z m64 -12 c-3 -7 -5 -2 -5 12 0 14 2 19 5 13 2 -7 2 -19 0 -25z
m590 10 c-3 -8 -6 -5 -6 6 -1 11 2 17 5 13 3 -3 4 -12 1 -19z m-1273 -4 c3 -8
2 -12 -4 -9 -6 3 -10 10 -10 16 0 14 7 11 14 -7z m-29 -34 c3 -5 1 -10 -4 -10
-6 0 -11 5 -11 10 0 6 2 10 4 10 3 0 8 -4 11 -10z m-665 -10 c0 -5 -2 -10 -4
-10 -3 0 -8 5 -11 10 -3 6 -1 10 4 10 6 0 11 -4 11 -10z m830 0 c0 -5 -4 -10
-10 -10 -5 0 -10 5 -10 10 0 6 5 10 10 10 6 0 10 -4 10 -10z m587 -22 c-3 -7
-5 -2 -5 12 0 14 2 19 5 13 2 -7 2 -19 0 -25z m666 -38 c-8 -9 -23 25 -22 50
0 22 2 20 13 -10 7 -19 11 -37 9 -40z m-1443 10 c0 -5 -5 -10 -11 -10 -5 0 -7
5 -4 10 3 6 8 10 11 10 2 0 4 -4 4 -10z m25 0 c3 -5 1 -10 -4 -10 -6 0 -11 5
-11 10 0 6 2 10 4 10 3 0 8 -4 11 -10z m108 -20 c3 -11 1 -20 -4 -20 -5 0 -9
9 -9 20 0 11 2 20 4 20 2 0 6 -9 9 -20z m650 0 c3 -11 1 -20 -4 -20 -5 0 -9 9
-9 20 0 11 2 20 4 20 2 0 6 -9 9 -20z m92 -8 c-21 -5 -45 5 -45 17 0 5 13 4
31 -2 21 -8 26 -13 14 -15z m538 8 c3 -11 1 -20 -4 -20 -5 0 -9 9 -9 20 0 11
2 20 4 20 2 0 6 -9 9 -20z m-1968 -20 c3 -5 1 -10 -4 -10 -6 0 -11 5 -11 10 0
6 2 10 4 10 3 0 8 -4 11 -10z m1295 -6 c0 -2 -7 -4 -15 -4 -8 0 -15 4 -15 10
0 5 7 7 15 4 8 -4 15 -8 15 -10z m-743 -46 c-3 -7 -5 -2 -5 12 0 14 2 19 5 13
2 -7 2 -19 0 -25z m763 22 c0 -5 -5 -10 -11 -10 -5 0 -7 5 -4 10 3 6 8 10 11
10 2 0 4 -4 4 -10z m30 0 c0 -5 -5 -10 -11 -10 -5 0 -7 5 -4 10 3 6 8 10 11
10 2 0 4 -4 4 -10z m720 0 c0 -5 -2 -10 -4 -10 -3 0 -8 5 -11 10 -3 6 -1 10 4
10 6 0 11 -4 11 -10z m-2196 -15 c3 -8 1 -15 -4 -15 -6 0 -10 7 -10 15 0 8 2
15 4 15 2 0 6 -7 10 -15z m786 -15 c0 -5 -2 -10 -4 -10 -3 0 -8 5 -11 10 -3 6
-1 10 4 10 6 0 11 -4 11 -10z m690 0 c0 -5 -4 -10 -10 -10 -5 0 -10 5 -10 10
0 6 5 10 10 10 6 0 10 -4 10 -10z m623 -10 c3 -11 1 -20 -4 -20 -5 0 -9 9 -9
20 0 11 2 20 4 20 2 0 6 -9 9 -20z m-2003 -20 c0 -5 -2 -10 -4 -10 -3 0 -8 5
-11 10 -3 6 -1 10 4 10 6 0 11 -4 11 -10z m565 -20 c3 -5 1 -10 -4 -10 -6 0
-11 5 -11 10 0 6 2 10 4 10 3 0 8 -4 11 -10z m110 0 c18 -8 17 -9 -7 -9 -16
-1 -28 4 -28 9 0 12 8 12 35 0z m-758 -6 c-3 -3 -12 -4 -19 -1 -8 3 -5 6 6 6
11 1 17 -2 13 -5z m1456 -1 c-7 -2 -19 -2 -25 0 -7 3 -2 5 12 5 14 0 19 -2 13
-5z m637 -28 c0 -5 -5 -3 -10 5 -5 8 -10 20 -10 25 0 6 5 3 10 -5 5 -8 10 -19
10 -25z m93 28 c-7 -2 -19 -2 -25 0 -7 3 -2 5 12 5 14 0 19 -2 13 -5z m-646
-25 c-3 -8 -6 -5 -6 6 -1 11 2 17 5 13 3 -3 4 -12 1 -19z m-862 2 c3 -5 1 -10
-4 -10 -6 0 -11 5 -11 10 0 6 2 10 4 10 3 0 8 -4 11 -10z m805 -4 c0 -2 -7 -6
-15 -10 -8 -3 -15 -1 -15 4 0 6 7 10 15 10 8 0 15 -2 15 -4z m157 -18 c-3 -8
-6 -5 -6 6 -1 11 2 17 5 13 3 -3 4 -12 1 -19z m-927 -3 c0 -8 -2 -15 -4 -15
-2 0 -6 7 -10 15 -3 8 -1 15 4 15 6 0 10 -7 10 -15z m-65 -5 c3 -5 1 -10 -4
-10 -6 0 -11 5 -11 10 0 6 2 10 4 10 3 0 8 -4 11 -10z m1520 0 c3 -5 1 -10 -4
-10 -6 0 -11 5 -11 10 0 6 2 10 4 10 3 0 8 -4 11 -10z m-2165 -4 c0 -3 -4 -8
-10 -11 -5 -3 -10 -1 -10 4 0 6 5 11 10 11 6 0 10 -2 10 -4z m677 -18 c-3 -8
-6 -5 -6 6 -1 11 2 17 5 13 3 -3 4 -12 1 -19z m793 12 c0 -5 -2 -10 -4 -10 -3
0 -8 5 -11 10 -3 6 -1 10 4 10 6 0 11 -4 11 -10z m-43 -22 c-3 -8 -6 -5 -6 6
-1 11 2 17 5 13 3 -3 4 -12 1 -19z m118 12 c3 -5 1 -10 -4 -10 -6 0 -11 5 -11
10 0 6 2 10 4 10 3 0 8 -4 11 -10z m-962 -7 c-7 -2 -19 -2 -25 0 -7 3 -2 5 12
5 14 0 19 -2 13 -5z m1084 -15 c-3 -8 -6 -5 -6 6 -1 11 2 17 5 13 3 -3 4 -12
1 -19z m-1577 -23 c0 -5 -5 -3 -10 5 -5 8 -10 20 -10 25 0 6 5 3 10 -5 5 -8
10 -19 10 -25z m1380 25 c0 -5 -2 -10 -4 -10 -3 0 -8 5 -11 10 -3 6 -1 10 4
10 6 0 11 -4 11 -10z m-1470 -21 c0 -5 -4 -9 -8 -9 -5 0 -9 7 -9 15 0 8 4 12
9 9 4 -3 8 -9 8 -15z m657 5 c-3 -3 -12 -4 -19 -1 -8 3 -5 6 6 6 11 1 17 -2
13 -5z m93 -4 c0 -5 -2 -10 -4 -10 -3 0 -8 5 -11 10 -3 6 -1 10 4 10 6 0 11
-4 11 -10z m1443 -7 c-7 -2 -21 -2 -30 0 -10 3 -4 5 12 5 17 0 24 -2 18 -5z
m-678 -33 c3 -6 -1 -7 -9 -4 -18 7 -21 14 -7 14 6 0 13 -4 16 -10z m105 -10
c0 -5 -5 -10 -11 -10 -5 0 -7 5 -4 10 3 6 8 10 11 10 2 0 4 -4 4 -10z m-1525
-10 c3 -5 1 -10 -4 -10 -6 0 -11 5 -11 10 0 6 2 10 4 10 3 0 8 -4 11 -10z
m438 -10 c3 -11 1 -20 -4 -20 -5 0 -9 9 -9 20 0 11 2 20 4 20 2 0 6 -9 9 -20z
m907 10 c0 -5 -5 -10 -11 -10 -5 0 -7 5 -4 10 3 6 8 10 11 10 2 0 4 -4 4 -10z
m735 0 c3 -5 -1 -10 -9 -10 -9 0 -16 5 -16 10 0 6 4 10 9 10 6 0 13 -4 16 -10z
m95 0 c0 -5 -2 -10 -4 -10 -3 0 -8 5 -11 10 -3 6 -1 10 4 10 6 0 11 -4 11 -10z
m-1448 -35 c3 -13 2 -22 -2 -20 -4 3 -10 16 -12 30 -3 13 -2 22 2 20 4 -3 10
-16 12 -30z m1280 0 c3 -13 2 -22 -2 -20 -4 3 -10 16 -12 30 -3 13 -2 22 2 20
4 -3 10 -16 12 -30z m-1768 0 c3 -8 1 -15 -4 -15 -6 0 -10 7 -10 15 0 8 2 15
4 15 2 0 6 -7 10 -15z m40 0 c3 -8 1 -15 -3 -15 -5 0 -11 7 -15 15 -3 8 -1 15
3 15 5 0 11 -7 15 -15z m741 5 c3 -5 1 -10 -4 -10 -6 0 -11 5 -11 10 0 6 2 10
4 10 3 0 8 -4 11 -10z m145 -6 c0 -2 -13 -4 -30 -4 -16 0 -30 4 -30 8 0 5 14
7 30 4 17 -2 30 -6 30 -8z m354 1 c3 -8 1 -15 -4 -15 -6 0 -10 7 -10 15 0 8 2
15 4 15 2 0 6 -7 10 -15z m40 0 c3 -8 1 -15 -3 -15 -5 0 -11 7 -15 15 -3 8 -1
15 3 15 5 0 11 -7 15 -15z m-1686 -2 c-10 -2 -26 -2 -35 0 -10 3 -2 5 17 5 19
0 27 -2 18 -5z m36 -8 c-4 -8 -8 -15 -10 -15 -2 0 -4 7 -4 15 0 8 4 15 10 15
5 0 7 -7 4 -15z m183 -7 c-3 -8 -6 -5 -6 6 -1 11 2 17 5 13 3 -3 4 -12 1 -19z
m707 7 c3 -8 1 -15 -4 -15 -6 0 -10 7 -10 15 0 8 2 15 4 15 2 0 6 -7 10 -15z
m390 0 c-4 -8 -8 -15 -10 -15 -2 0 -4 7 -4 15 0 8 4 15 10 15 5 0 7 -7 4 -15z
m59 8 c-7 -2 -21 -2 -30 0 -10 3 -4 5 12 5 17 0 24 -2 18 -5z m124 -25 c-3 -7
-5 -2 -5 12 0 14 2 19 5 13 2 -7 2 -19 0 -25z m48 22 c3 -6 -1 -7 -9 -4 -18 7
-21 14 -7 14 6 0 13 -4 16 -10z m659 -5 c3 -8 1 -15 -4 -15 -6 0 -10 7 -10 15
0 8 2 15 4 15 2 0 6 -7 10 -15z m-1744 -5 c0 -5 -8 -10 -17 -10 -15 0 -16 2
-3 10 19 12 20 12 20 0z m40 0 c0 -5 -4 -10 -10 -10 -5 0 -10 5 -10 10 0 6 5
10 10 10 6 0 10 -4 10 -10z m1080 6 c0 -3 -4 -8 -10 -11 -5 -3 -10 -1 -10 4 0
6 5 11 10 11 6 0 10 -2 10 -4z m160 -6 c0 -5 -8 -10 -17 -10 -15 0 -16 2 -3
10 19 12 20 12 20 0z m40 0 c0 -5 -4 -10 -10 -10 -5 0 -10 5 -10 10 0 6 5 10
10 10 6 0 10 -4 10 -10z m-1845 -10 c3 -5 1 -10 -4 -10 -6 0 -11 5 -11 10 0 6
2 10 4 10 3 0 8 -4 11 -10z m1085 0 c0 -5 -2 -10 -4 -10 -3 0 -8 5 -11 10 -3
6 -1 10 4 10 6 0 11 -4 11 -10z m1280 0 c0 -5 -2 -10 -4 -10 -3 0 -8 5 -11 10
-3 6 -1 10 4 10 6 0 11 -4 11 -10z m-2265 -30 c3 -5 1 -10 -4 -10 -6 0 -11 5
-11 10 0 6 2 10 4 10 3 0 8 -4 11 -10z m65 0 c0 -5 -2 -10 -4 -10 -3 0 -8 5
-11 10 -3 6 -1 10 4 10 6 0 11 -4 11 -10z m270 -10 c0 -11 -2 -20 -4 -20 -2 0
-6 9 -9 20 -3 11 -1 20 4 20 5 0 9 -9 9 -20z m447 -32 c-2 -13 -4 -5 -4 17 -1
22 1 32 4 23 2 -10 2 -28 0 -40z m107 26 c7 -19 -1 -18 -26 5 l-20 20 20 -6
c11 -3 23 -11 26 -19z m391 16 c3 -5 1 -10 -4 -10 -6 0 -11 5 -11 10 0 6 2 10
4 10 3 0 8 -4 11 -10z m65 0 c0 -5 -2 -10 -4 -10 -3 0 -8 5 -11 10 -3 6 -1 10
4 10 6 0 11 -4 11 -10z m270 -10 c0 -11 -2 -20 -4 -20 -2 0 -6 9 -9 20 -3 11
-1 20 4 20 5 0 9 -9 9 -20z m447 -32 c-2 -13 -4 -5 -4 17 -1 22 1 32 4 23 2
-10 2 -28 0 -40z m107 27 c3 -8 3 -15 0 -15 -3 0 -12 7 -20 15 -13 13 -13 15
-1 15 8 0 17 -7 21 -15z m-1894 1 c0 -3 -4 -8 -10 -11 -5 -3 -10 -1 -10 4 0 6
5 11 10 11 6 0 10 -2 10 -4z m375 -6 c3 -5 1 -10 -4 -10 -6 0 -11 5 -11 10 0
6 2 10 4 10 3 0 8 -4 11 -10z m905 6 c0 -3 -4 -8 -10 -11 -5 -3 -10 -1 -10 4
0 6 5 11 10 11 6 0 10 -2 10 -4z m375 -6 c3 -5 1 -10 -4 -10 -6 0 -11 5 -11
10 0 6 2 10 4 10 3 0 8 -4 11 -10z m-1865 -16 c0 -1 -19 -2 -42 -2 -29 0 -37
3 -24 8 18 6 66 2 66 -6z m130 6 c0 -5 -5 -10 -11 -10 -5 0 -7 5 -4 10 3 6 8
10 11 10 2 0 4 -4 4 -10z m670 -25 c0 -5 -5 -3 -10 5 -5 8 -10 20 -10 25 0 6
5 3 10 -5 5 -8 10 -19 10 -25z m185 25 c3 -5 1 -10 -4 -10 -6 0 -11 5 -11 10
0 6 2 10 4 10 3 0 8 -4 11 -10z m295 -6 c0 -2 -19 -4 -42 -3 -31 0 -37 3 -24
8 18 7 66 3 66 -5z m130 6 c0 -5 -4 -10 -10 -10 -5 0 -10 5 -10 10 0 6 5 10
10 10 6 0 10 -4 10 -10z m670 -25 c0 -5 -5 -3 -10 5 -5 8 -10 20 -10 25 0 6 5
3 10 -5 5 -8 10 -19 10 -25z m-1807 -5 c3 -11 1 -20 -4 -20 -5 0 -9 9 -9 20 0
11 2 20 4 20 2 0 6 -9 9 -20z m1280 0 c3 -11 1 -20 -4 -20 -5 0 -9 9 -9 20 0
11 2 20 4 20 2 0 6 -9 9 -20z m-1713 0 c0 -5 -2 -10 -4 -10 -3 0 -8 5 -11 10
-3 6 -1 10 4 10 6 0 11 -4 11 -10z m287 -22 c-3 -7 -5 -2 -5 12 0 14 2 19 5
13 2 -7 2 -19 0 -25z m993 22 c0 -5 -2 -10 -4 -10 -3 0 -8 5 -11 10 -3 6 -1
10 4 10 6 0 11 -4 11 -10z m287 -22 c-3 -7 -5 -2 -5 12 0 14 2 19 5 13 2 -7 2
-19 0 -25z m-1380 0 c-3 -8 -6 -5 -6 6 -1 11 2 17 5 13 3 -3 4 -12 1 -19z
m148 12 c3 -5 1 -10 -4 -10 -6 0 -11 5 -11 10 0 6 2 10 4 10 3 0 8 -4 11 -10z
m65 0 c0 -5 -4 -10 -10 -10 -5 0 -10 5 -10 10 0 6 5 10 10 10 6 0 10 -4 10
-10z m105 0 c3 -5 1 -10 -4 -10 -6 0 -11 5 -11 10 0 6 2 10 4 10 3 0 8 -4 11
-10z m962 -12 c-3 -8 -6 -5 -6 6 -1 11 2 17 5 13 3 -3 4 -12 1 -19z m148 12
c3 -5 1 -10 -4 -10 -6 0 -11 5 -11 10 0 6 2 10 4 10 3 0 8 -4 11 -10z m65 0
c0 -5 -4 -10 -10 -10 -5 0 -10 5 -10 10 0 6 5 10 10 10 6 0 10 -4 10 -10z
m105 0 c3 -5 1 -10 -4 -10 -6 0 -11 5 -11 10 0 6 2 10 4 10 3 0 8 -4 11 -10z
m-1820 -10 c3 -5 1 -10 -4 -10 -6 0 -11 5 -11 10 0 6 2 10 4 10 3 0 8 -4 11
-10z m605 0 c0 -5 -4 -10 -10 -10 -5 0 -10 5 -10 10 0 6 5 10 10 10 6 0 10 -4
10 -10z m30 0 c0 -5 -2 -10 -4 -10 -3 0 -8 5 -11 10 -3 6 -1 10 4 10 6 0 11
-4 11 -10z m35 0 c3 -5 1 -10 -4 -10 -6 0 -11 5 -11 10 0 6 2 10 4 10 3 0 8
-4 11 -10z m85 -12 c0 -18 -2 -20 -9 -8 -6 8 -7 18 -5 22 9 14 14 9 14 -14z
m70 12 c0 -5 -4 -10 -10 -10 -5 0 -10 5 -10 10 0 6 5 10 10 10 6 0 10 -4 10
-10z m135 0 c3 -5 1 -10 -4 -10 -6 0 -11 5 -11 10 0 6 2 10 4 10 3 0 8 -4 11
-10z m260 0 c3 -5 1 -10 -4 -10 -6 0 -11 5 -11 10 0 6 2 10 4 10 3 0 8 -4 11
-10z m60 0 c3 -5 1 -10 -4 -10 -6 0 -11 5 -11 10 0 6 2 10 4 10 3 0 8 -4 11
-10z m605 0 c0 -5 -4 -10 -10 -10 -5 0 -10 5 -10 10 0 6 5 10 10 10 6 0 10 -4
10 -10z m30 0 c0 -5 -2 -10 -4 -10 -3 0 -8 5 -11 10 -3 6 -1 10 4 10 6 0 11
-4 11 -10z m35 0 c3 -5 1 -10 -4 -10 -6 0 -11 5 -11 10 0 6 2 10 4 10 3 0 8
-4 11 -10z m85 -12 c0 -18 -2 -20 -9 -8 -6 8 -7 18 -5 22 9 14 14 9 14 -14z
m70 12 c0 -5 -2 -10 -4 -10 -3 0 -8 5 -11 10 -3 6 -1 10 4 10 6 0 11 -4 11
-10z m135 0 c3 -5 1 -10 -4 -10 -6 0 -11 5 -11 10 0 6 2 10 4 10 3 0 8 -4 11
-10z m320 0 c3 -5 1 -10 -4 -10 -6 0 -11 5 -11 10 0 6 2 10 4 10 3 0 8 -4 11
-10z m-1638 -6 c-3 -3 -12 -4 -19 -1 -8 3 -5 6 6 6 11 1 17 -2 13 -5z m90 0
c-3 -3 -12 -4 -19 -1 -8 3 -5 6 6 6 11 1 17 -2 13 -5z m103 -3 c0 -4 -11 -6
-25 -3 -14 2 -25 6 -25 8 0 2 11 4 25 4 14 0 25 -4 25 -9z m1087 3 c-3 -3 -12
-4 -19 -1 -8 3 -5 6 6 6 11 1 17 -2 13 -5z m90 0 c-3 -3 -12 -4 -19 -1 -8 3
-5 6 6 6 11 1 17 -2 13 -5z m-2292 -23 c3 -5 1 -12 -5 -16 -5 -3 -10 1 -10 9
0 18 6 21 15 7z m965 -12 c0 -5 -4 -9 -10 -9 -5 0 -10 7 -10 16 0 8 5 12 10 9
6 -3 10 -10 10 -16z m315 12 c3 -5 1 -12 -5 -16 -5 -3 -10 1 -10 9 0 18 6 21
15 7z m965 -12 c0 -5 -4 -9 -10 -9 -5 0 -10 7 -10 16 0 8 5 12 10 9 6 -3 10
-10 10 -16z m-2110 1 c0 -5 -2 -10 -4 -10 -3 0 -8 5 -11 10 -3 6 -1 10 4 10 6
0 11 -4 11 -10z m984 -6 c3 -8 2 -12 -4 -9 -6 3 -10 10 -10 16 0 14 7 11 14
-7z m296 6 c0 -5 -2 -10 -4 -10 -3 0 -8 5 -11 10 -3 6 -1 10 4 10 6 0 11 -4
11 -10z m153 3 c-7 -2 -21 -2 -30 0 -10 3 -4 5 12 5 17 0 24 -2 18 -5z m831
-9 c3 -8 2 -12 -4 -9 -6 3 -10 10 -10 16 0 14 7 11 14 -7z m-1924 -19 c0 -8
-2 -15 -4 -15 -2 0 -6 7 -10 15 -3 8 -1 15 4 15 6 0 10 -7 10 -15z m157 -17
c-3 -7 -5 -2 -5 12 0 14 2 19 5 13 2 -7 2 -19 0 -25z m290 10 c-3 -8 -6 -5 -6
6 -1 11 2 17 5 13 3 -3 4 -12 1 -19z m70 0 c-3 -8 -6 -5 -6 6 -1 11 2 17 5 13
3 -3 4 -12 1 -19z m763 7 c0 -8 -2 -15 -4 -15 -2 0 -6 7 -10 15 -3 8 -1 15 4
15 6 0 10 -7 10 -15z m157 -17 c-3 -7 -5 -2 -5 12 0 14 2 19 5 13 2 -7 2 -19
0 -25z m290 10 c-3 -8 -6 -5 -6 6 -1 11 2 17 5 13 3 -3 4 -12 1 -19z m-1532
-8 c3 -5 1 -10 -4 -10 -6 0 -11 5 -11 10 0 6 2 10 4 10 3 0 8 -4 11 -10z
m1280 0 c3 -5 1 -10 -4 -10 -6 0 -11 5 -11 10 0 6 2 10 4 10 3 0 8 -4 11 -10z
m-161 -15 c3 -8 1 -15 -4 -15 -6 0 -10 7 -10 15 0 8 2 15 4 15 2 0 6 -7 10
-15z m-1279 -5 c3 -5 1 -10 -4 -10 -6 0 -11 5 -11 10 0 6 2 10 4 10 3 0 8 -4
11 -10z m122 -32 c-3 -8 -6 -5 -6 6 -1 11 2 17 5 13 3 -3 4 -12 1 -19z m1280
0 c-3 -8 -6 -5 -6 6 -1 11 2 17 5 13 3 -3 4 -12 1 -19z m-1397 -33 c0 -5 -5
-3 -10 5 -5 8 -10 20 -10 25 0 6 5 3 10 -5 5 -8 10 -19 10 -25z m1280 2 c0 -5
-4 -5 -10 -2 -5 3 -10 14 -10 23 0 15 2 15 10 2 5 -8 10 -19 10 -23z m-1056 8
c3 -8 1 -15 -4 -15 -6 0 -10 7 -10 15 0 8 2 15 4 15 2 0 6 -7 10 -15z m1280 0
c3 -8 1 -15 -4 -15 -6 0 -10 7 -10 15 0 8 2 15 4 15 2 0 6 -7 10 -15z m-838
-42 c-10 -10 -19 5 -10 18 6 11 8 11 12 0 2 -7 1 -15 -2 -18z m-626 7 c0 -5
-2 -10 -4 -10 -3 0 -8 5 -11 10 -3 6 -1 10 4 10 6 0 11 -4 11 -10z m1280 0 c0
-5 -2 -10 -4 -10 -3 0 -8 5 -11 10 -3 6 -1 10 4 10 6 0 11 -4 11 -10z m-1420
-30 c0 -5 -5 -10 -11 -10 -5 0 -7 5 -4 10 3 6 8 10 11 10 2 0 4 -4 4 -10z
m105 0 c3 -5 -1 -10 -10 -10 -9 0 -13 5 -10 10 3 6 8 10 10 10 2 0 7 -4 10
-10z m1215 0 c0 -5 -2 -10 -4 -10 -3 0 -8 5 -11 10 -3 6 -1 10 4 10 6 0 11 -4
11 -10z m65 0 c3 -5 -1 -10 -10 -10 -9 0 -13 5 -10 10 3 6 8 10 10 10 2 0 7
-4 10 -10z m-1162 -7 c-7 -2 -19 -2 -25 0 -7 3 -2 5 12 5 14 0 19 -2 13 -5z
m72 -3 c3 -5 1 -10 -4 -10 -6 0 -11 5 -11 10 0 6 2 10 4 10 3 0 8 -4 11 -10z
m1208 3 c-7 -2 -19 -2 -25 0 -7 3 -2 5 12 5 14 0 19 -2 13 -5z m-1433 -56 c0
-5 -4 -5 -10 -2 -5 3 -10 14 -10 23 0 15 2 15 10 2 5 -8 10 -19 10 -23z m64
18 c3 -8 1 -15 -4 -15 -6 0 -10 7 -10 15 0 8 2 15 4 15 2 0 6 -7 10 -15z
m1280 0 c3 -8 1 -15 -4 -15 -6 0 -10 7 -10 15 0 8 2 15 4 15 2 0 6 -7 10 -15z
m126 -5 c0 -11 -2 -20 -4 -20 -2 0 -6 9 -9 20 -3 11 -1 20 4 20 5 0 9 -9 9
-20z m67 -62 c-2 -13 -4 -5 -4 17 -1 22 1 32 4 23 2 -10 2 -28 0 -40z m-1307
21 c0 -6 -4 -7 -10 -4 -5 3 -10 11 -10 16 0 6 5 7 10 4 6 -3 10 -11 10 -16z
m-166 -14 c3 -8 1 -15 -4 -15 -6 0 -10 7 -10 15 0 8 2 15 4 15 2 0 6 -7 10
-15z m1280 0 c3 -8 1 -15 -4 -15 -6 0 -10 7 -10 15 0 8 2 15 4 15 2 0 6 -7 10
-15z m-1344 -15 c0 -5 -2 -10 -4 -10 -3 0 -8 5 -11 10 -3 6 -1 10 4 10 6 0 11
-4 11 -10z m300 -64 c0 -2 -7 -7 -16 -10 -8 -3 -12 -2 -9 4 6 10 25 14 25 6z
m1245 -26 c3 -5 1 -10 -4 -10 -6 0 -11 5 -11 10 0 6 2 10 4 10 3 0 8 -4 11
-10z m-1177 -20 c-9 -14 -14 -16 -20 -7 -6 10 5 20 30 26 1 1 -3 -8 -10 -19z
m-441 -6 c-3 -3 -12 -4 -19 -1 -8 3 -5 6 6 6 11 1 17 -2 13 -5z m1523 -4 c0
-5 -4 -10 -10 -10 -5 0 -10 5 -10 10 0 6 5 10 10 10 6 0 10 -4 10 -10z m35 0
c3 -5 1 -10 -4 -10 -6 0 -11 5 -11 10 0 6 2 10 4 10 3 0 8 -4 11 -10z m-2105
-4 c0 -3 -4 -8 -10 -11 -5 -3 -10 -1 -10 4 0 6 5 11 10 11 6 0 10 -2 10 -4z
m47 -28 c-3 -7 -5 -2 -5 12 0 14 2 19 5 13 2 -7 2 -19 0 -25z m443 28 c0 -3
-4 -8 -10 -11 -5 -3 -10 -1 -10 4 0 6 5 11 10 11 6 0 10 -2 10 -4z m790 0 c0
-3 -4 -8 -10 -11 -5 -3 -10 -1 -10 4 0 6 5 11 10 11 6 0 10 -2 10 -4z m47 -28
c-3 -7 -5 -2 -5 12 0 14 2 19 5 13 2 -7 2 -19 0 -25z m443 28 c0 -3 -4 -8 -10
-11 -5 -3 -10 -1 -10 4 0 6 5 11 10 11 6 0 10 -2 10 -4z m837 -28 c-3 -7 -5
-2 -5 12 0 14 2 19 5 13 2 -7 2 -19 0 -25z m-2217 2 c0 -5 -4 -10 -10 -10 -5
0 -10 5 -10 10 0 6 5 10 10 10 6 0 10 -4 10 -10z m203 -10 c3 -11 1 -20 -4
-20 -5 0 -9 9 -9 20 0 11 2 20 4 20 2 0 6 -9 9 -20z m384 -17 c-3 -10 -5 -4
-5 12 0 17 2 24 5 18 2 -7 2 -21 0 -30z m693 27 c0 -5 -4 -10 -10 -10 -5 0
-10 5 -10 10 0 6 5 10 10 10 6 0 10 -4 10 -10z m203 -10 c3 -11 1 -20 -4 -20
-5 0 -9 9 -9 20 0 11 2 20 4 20 2 0 6 -9 9 -20z m384 -17 c-3 -10 -5 -4 -5 12
0 17 2 24 5 18 2 -7 2 -21 0 -30z m-2170 -10 c-3 -10 -5 -4 -5 12 0 17 2 24 5
18 2 -7 2 -21 0 -30z m1150 15 c-3 -8 -6 -5 -6 6 -1 11 2 17 5 13 3 -3 4 -12
1 -19z m130 -15 c-3 -10 -5 -4 -5 12 0 17 2 24 5 18 2 -7 2 -21 0 -30z m1280
0 c-3 -10 -5 -4 -5 12 0 17 2 24 5 18 2 -7 2 -21 0 -30z m-2117 17 c0 -5 -2
-10 -4 -10 -3 0 -8 5 -11 10 -3 6 -1 10 4 10 6 0 11 -4 11 -10z m1280 0 c0 -5
-2 -10 -4 -10 -3 0 -8 5 -11 10 -3 6 -1 10 4 10 6 0 11 -4 11 -10z m-1765 -18
c-3 -3 -11 0 -18 7 -9 10 -8 11 6 5 10 -3 15 -9 12 -12z m80 8 c3 -5 1 -10 -4
-10 -6 0 -11 5 -11 10 0 6 2 10 4 10 3 0 8 -4 11 -10z m170 0 c3 -5 -1 -10 -9
-10 -9 0 -16 5 -16 10 0 6 4 10 9 10 6 0 13 -4 16 -10z m395 0 c0 -5 -2 -10
-4 -10 -3 0 -8 5 -11 10 -3 6 -1 10 4 10 6 0 11 -4 11 -10z m230 0 c0 -5 -2
-10 -4 -10 -3 0 -8 5 -11 10 -3 6 -1 10 4 10 6 0 11 -4 11 -10z m405 -8 c-3
-3 -11 0 -18 7 -9 10 -8 11 6 5 10 -3 15 -9 12 -12z m80 8 c3 -5 1 -10 -4 -10
-6 0 -11 5 -11 10 0 6 2 10 4 10 3 0 8 -4 11 -10z m170 0 c3 -5 -1 -10 -9 -10
-9 0 -16 5 -16 10 0 6 4 10 9 10 6 0 13 -4 16 -10z m395 0 c0 -5 -2 -10 -4
-10 -3 0 -8 5 -11 10 -3 6 -1 10 4 10 6 0 11 -4 11 -10z m230 0 c0 -5 -2 -10
-4 -10 -3 0 -8 5 -11 10 -3 6 -1 10 4 10 6 0 11 -4 11 -10z m405 -8 c-3 -3
-11 0 -18 7 -9 10 -8 11 6 5 10 -3 15 -9 12 -12z m80 8 c3 -5 1 -10 -4 -10 -6
0 -11 5 -11 10 0 6 2 10 4 10 3 0 8 -4 11 -10z m165 0 c0 -5 -2 -10 -4 -10 -3
0 -8 5 -11 10 -3 6 -1 10 4 10 6 0 11 -4 11 -10z m-2603 -6 c-3 -3 -12 -4 -19
-1 -8 3 -5 6 6 6 11 1 17 -2 13 -5z m760 -46 c-2 -13 -4 -5 -4 17 -1 22 1 32
4 23 2 -10 2 -28 0 -40z m520 46 c-3 -3 -12 -4 -19 -1 -8 3 -5 6 6 6 11 1 17
-2 13 -5z m208 -14 c10 -11 13 -20 7 -20 -7 0 -12 5 -12 10 0 6 -10 15 -22 20
-15 6 -17 9 -7 9 9 1 24 -8 34 -19z m552 -32 c-2 -13 -4 -5 -4 17 -1 22 1 32
4 23 2 -10 2 -28 0 -40z m520 46 c-3 -3 -12 -4 -19 -1 -8 3 -5 6 6 6 11 1 17
-2 13 -5z m83 -9 c0 -8 -4 -15 -10 -15 -5 0 -10 7 -10 15 0 8 5 15 10 15 6 0
10 -7 10 -15z m-2430 -10 c7 -9 8 -15 2 -15 -5 0 -12 7 -16 15 -3 8 -4 15 -2
15 2 0 9 -7 16 -15z m169 -12 c0 -25 -1 -25 -8 -8 -5 11 -7 23 -4 28 8 14 13
7 12 -20z m1280 0 c0 -25 -1 -25 -8 -8 -5 11 -7 23 -4 28 8 14 13 7 12 -20z
m248 5 c-3 -8 -6 -5 -6 6 -1 11 2 17 5 13 3 -3 4 -12 1 -19z m-2197 -13 c0
-14 -2 -25 -4 -25 -2 0 -6 11 -8 25 -3 14 -1 25 3 25 5 0 9 -11 9 -25z m727
-7 c-3 -7 -5 -2 -5 12 0 14 2 19 5 13 2 -7 2 -19 0 -25z m90 -20 c-2 -13 -4
-5 -4 17 -1 22 1 32 4 23 2 -10 2 -28 0 -40z m463 22 c0 -16 -2 -30 -4 -30 -2
0 -6 14 -8 30 -3 17 -1 30 4 30 4 0 8 -13 8 -30z m727 -2 c-3 -7 -5 -2 -5 12
0 14 2 19 5 13 2 -7 2 -19 0 -25z m90 -20 c-2 -13 -4 -5 -4 17 -1 22 1 32 4
23 2 -10 2 -28 0 -40z m463 27 c0 -14 -2 -25 -4 -25 -2 0 -6 11 -8 25 -3 14
-1 25 3 25 5 0 9 -11 9 -25z m-2090 0 c0 -8 -2 -15 -4 -15 -2 0 -6 7 -10 15
-3 8 -1 15 4 15 6 0 10 -7 10 -15z m1280 0 c0 -8 -2 -15 -4 -15 -2 0 -6 7 -10
15 -3 8 -1 15 4 15 6 0 10 -7 10 -15z m-765 -5 c3 -5 1 -10 -4 -10 -6 0 -11 5
-11 10 0 6 2 10 4 10 3 0 8 -4 11 -10z m1280 0 c3 -5 1 -10 -4 -10 -6 0 -11 5
-11 10 0 6 2 10 4 10 3 0 8 -4 11 -10z m-2230 -10 c3 -5 1 -10 -4 -10 -6 0
-11 5 -11 10 0 6 2 10 4 10 3 0 8 -4 11 -10z m130 0 c3 -5 1 -10 -4 -10 -6 0
-11 5 -11 10 0 6 2 10 4 10 3 0 8 -4 11 -10z m260 0 c3 -5 1 -10 -4 -10 -6 0
-11 5 -11 10 0 6 2 10 4 10 3 0 8 -4 11 -10z m890 0 c3 -5 1 -10 -4 -10 -6 0
-11 5 -11 10 0 6 2 10 4 10 3 0 8 -4 11 -10z m130 0 c3 -5 1 -10 -4 -10 -6 0
-11 5 -11 10 0 6 2 10 4 10 3 0 8 -4 11 -10z m260 0 c3 -5 1 -10 -4 -10 -6 0
-11 5 -11 10 0 6 2 10 4 10 3 0 8 -4 11 -10z m890 0 c3 -5 1 -10 -4 -10 -6 0
-11 5 -11 10 0 6 2 10 4 10 3 0 8 -4 11 -10z m130 0 c3 -5 1 -10 -4 -10 -6 0
-11 5 -11 10 0 6 2 10 4 10 3 0 8 -4 11 -10z m-2802 -7 c-7 -2 -19 -2 -25 0
-7 3 -2 5 12 5 14 0 19 -2 13 -5z m170 0 c-7 -2 -19 -2 -25 0 -7 3 -2 5 12 5
14 0 19 -2 13 -5z m197 -2 c0 -5 -9 -7 -20 -4 -11 3 -20 7 -20 9 0 2 9 4 20 4
11 0 20 -4 20 -9z m210 -1 c0 -5 -2 -10 -4 -10 -3 0 -8 5 -11 10 -3 6 -1 10 4
10 6 0 11 -4 11 -10z m56 -8 c-10 -2 -22 0 -28 6 -6 6 0 7 19 4 21 -5 23 -7 9
-10z m647 11 c-7 -2 -19 -2 -25 0 -7 3 -2 5 12 5 14 0 19 -2 13 -5z m170 0
c-7 -2 -19 -2 -25 0 -7 3 -2 5 12 5 14 0 19 -2 13 -5z m197 -2 c0 -5 -9 -7
-20 -4 -11 3 -20 7 -20 9 0 2 9 4 20 4 11 0 20 -4 20 -9z m210 -1 c0 -5 -2
-10 -4 -10 -3 0 -8 5 -11 10 -3 6 -1 10 4 10 6 0 11 -4 11 -10z m56 -8 c-10
-2 -22 0 -28 6 -6 6 0 7 19 4 21 -5 23 -7 9 -10z m647 11 c-7 -2 -19 -2 -25 0
-7 3 -2 5 12 5 14 0 19 -2 13 -5z m170 0 c-7 -2 -19 -2 -25 0 -7 3 -2 5 12 5
14 0 19 -2 13 -5z m197 -2 c0 -5 -9 -7 -20 -4 -11 3 -20 7 -20 9 0 2 9 4 20 4
11 0 20 -4 20 -9z m-545 -11 c3 -5 1 -10 -4 -10 -6 0 -11 5 -11 10 0 6 2 10 4
10 3 0 8 -4 11 -10z m-2075 -20 c0 -11 -4 -20 -10 -20 -5 0 -10 9 -10 20 0 11
5 20 10 20 6 0 10 -9 10 -20z m197 -17 c-3 -10 -5 -4 -5 12 0 17 2 24 5 18 2
-7 2 -21 0 -30z m1083 17 c0 -11 -4 -20 -10 -20 -5 0 -10 9 -10 20 0 11 5 20
10 20 6 0 10 -9 10 -20z m200 -2 c0 -18 -2 -20 -9 -8 -6 8 -7 18 -5 22 9 14
14 9 14 -14z m1080 2 c0 -11 -4 -20 -9 -20 -7 0 -8 17 -2 38 4 10 11 -2 11
-18z m-2793 -22 c-3 -7 -5 -2 -5 12 0 14 2 19 5 13 2 -7 2 -19 0 -25z m470 0
c-3 -7 -5 -2 -5 12 0 14 2 19 5 13 2 -7 2 -19 0 -25z m810 10 c-3 -8 -6 -5 -6
6 -1 11 2 17 5 13 3 -3 4 -12 1 -19z m43 12 c0 -5 -2 -10 -4 -10 -3 0 -8 5
-11 10 -3 6 -1 10 4 10 6 0 11 -4 11 -10z m117 -22 c-3 -7 -5 -2 -5 12 0 14 2
19 5 13 2 -7 2 -19 0 -25z m200 10 c-3 -8 -6 -5 -6 6 -1 11 2 17 5 13 3 -3 4
-12 1 -19z m920 -10 c-3 -7 -5 -2 -5 12 0 14 2 19 5 13 2 -7 2 -19 0 -25z m43
22 c0 -5 -2 -10 -4 -10 -3 0 -8 5 -11 10 -3 6 -1 10 4 10 6 0 11 -4 11 -10z
m387 -22 c-3 -7 -5 -2 -5 12 0 14 2 19 5 13 2 -7 2 -19 0 -25z m-2157 12 c0
-5 -5 -10 -11 -10 -5 0 -7 5 -4 10 3 6 8 10 11 10 2 0 4 -4 4 -10z m100 -6 c0
-2 -9 -4 -20 -4 -11 0 -20 4 -20 9 0 5 9 7 20 4 11 -3 20 -7 20 -9z m1180 6
c0 -5 -5 -10 -11 -10 -5 0 -7 5 -4 10 3 6 8 10 11 10 2 0 4 -4 4 -10z m100 -6
c0 -2 -9 -4 -20 -4 -11 0 -20 4 -20 9 0 5 9 7 20 4 11 -3 20 -7 20 -9z m-2370
2 c0 -3 -4 -8 -10 -11 -5 -3 -10 -1 -10 4 0 6 5 11 10 11 6 0 10 -2 10 -4z
m65 -6 c3 -5 1 -10 -4 -10 -6 0 -11 5 -11 10 0 6 2 10 4 10 3 0 8 -4 11 -10z
m2560 0 c3 -5 1 -10 -4 -10 -6 0 -11 5 -11 10 0 6 2 10 4 10 3 0 8 -4 11 -10z
m-1895 -30 c0 -11 -2 -20 -4 -20 -2 0 -6 9 -9 20 -3 11 -1 20 4 20 5 0 9 -9 9
-20z m-240 0 c0 -5 -4 -10 -10 -10 -5 0 -10 5 -10 10 0 6 5 10 10 10 6 0 10
-4 10 -10z m97 -22 c-3 -7 -5 -2 -5 12 0 14 2 19 5 13 2 -7 2 -19 0 -25z m753
22 c0 -5 -9 -10 -21 -10 -11 0 -17 5 -14 10 3 6 13 10 21 10 8 0 14 -4 14 -10z
m987 4 c-3 -3 -12 -4 -19 -1 -8 3 -5 6 6 6 11 1 17 -2 13 -5z m50 0 c-3 -3
-12 -4 -19 -1 -8 3 -5 6 6 6 11 1 17 -2 13 -5z m86 -14 c3 -11 1 -18 -4 -14
-5 3 -9 12 -9 20 0 20 7 17 13 -6z m487 10 c0 -5 -5 -10 -11 -10 -5 0 -7 5 -4
10 3 6 8 10 11 10 2 0 4 -4 4 -10z m100 6 c0 -3 -4 -8 -10 -11 -5 -3 -10 -1
-10 4 0 6 5 11 10 11 6 0 10 -2 10 -4z m27 -28 c-3 -7 -5 -2 -5 12 0 14 2 19
5 13 2 -7 2 -19 0 -25z m-2977 -13 c0 -5 -5 -3 -10 5 -5 8 -10 20 -10 25 0 6
5 3 10 -5 5 -8 10 -19 10 -25z m97 3 c-3 -7 -5 -2 -5 12 0 14 2 19 5 13 2 -7
2 -19 0 -25z m37 17 c3 -8 1 -15 -4 -15 -6 0 -10 7 -10 15 0 8 2 15 4 15 2 0
6 -7 10 -15z m53 -7 c-3 -8 -6 -5 -6 6 -1 11 2 17 5 13 3 -3 4 -12 1 -19z
m130 0 c-3 -8 -6 -5 -6 6 -1 11 2 17 5 13 3 -3 4 -12 1 -19z m107 7 c3 -8 1
-15 -4 -15 -6 0 -10 7 -10 15 0 8 2 15 4 15 2 0 6 -7 10 -15z m464 -10 c-3 -3
-9 2 -12 12 -6 14 -5 15 5 6 7 -7 10 -15 7 -18z m196 9 c3 -8 2 -12 -4 -9 -6
3 -10 10 -10 16 0 14 7 11 14 -7z m196 -19 c0 -5 -5 -3 -10 5 -5 8 -10 20 -10
25 0 6 5 3 10 -5 5 -8 10 -19 10 -25z m97 13 c-3 -8 -6 -5 -6 6 -1 11 2 17 5
13 3 -3 4 -12 1 -19z m37 7 c3 -8 1 -15 -4 -15 -6 0 -10 7 -10 15 0 8 2 15 4
15 2 0 6 -7 10 -15z m53 -7 c-3 -8 -6 -5 -6 6 -1 11 2 17 5 13 3 -3 4 -12 1
-19z m130 0 c-3 -8 -6 -5 -6 6 -1 11 2 17 5 13 3 -3 4 -12 1 -19z m107 7 c3
-8 1 -15 -4 -15 -6 0 -10 7 -10 15 0 8 2 15 4 15 2 0 6 -7 10 -15z m63 -7 c-3
-8 -6 -5 -6 6 -1 11 2 17 5 13 3 -3 4 -12 1 -19z m401 -3 c-3 -3 -9 2 -12 12
-6 14 -5 15 5 6 7 -7 10 -15 7 -18z m392 -10 c0 -5 -5 -3 -10 5 -5 8 -10 20
-10 25 0 6 5 3 10 -5 5 -8 10 -19 10 -25z m134 20 c3 -8 1 -15 -4 -15 -6 0
-10 7 -10 15 0 8 2 15 4 15 2 0 6 -7 10 -15z m53 -7 c-3 -8 -6 -5 -6 6 -1 11
2 17 5 13 3 -3 4 -12 1 -19z m130 0 c-3 -8 -6 -5 -6 6 -1 11 2 17 5 13 3 -3 4
-12 1 -19z m-2217 -8 c0 -11 -2 -20 -4 -20 -2 0 -6 9 -9 20 -3 11 -1 20 4 20
5 0 9 -9 9 -20z m67 -12 c-3 -7 -5 -2 -5 12 0 14 2 19 5 13 2 -7 2 -19 0 -25z
m298 22 c3 -5 1 -10 -4 -10 -6 0 -11 5 -11 10 0 6 2 10 4 10 3 0 8 -4 11 -10z
m915 -5 c0 -8 -2 -15 -4 -15 -2 0 -6 7 -10 15 -3 8 -1 15 4 15 6 0 10 -7 10
-15z m365 5 c3 -5 1 -10 -4 -10 -6 0 -11 5 -11 10 0 6 2 10 4 10 3 0 8 -4 11
-10z m-1074 -20 c21 0 26 -25 7 -36 -17 -11 30 -27 70 -25 19 2 32 -2 32 -9 0
-7 -7 -10 -15 -6 -9 3 -18 -1 -21 -9 -4 -8 -13 -15 -22 -15 -13 0 -13 -2 3
-14 18 -13 18 -14 -3 -25 -12 -7 -22 -8 -22 -2 0 5 6 12 13 14 9 4 9 6 -1 6
-8 1 -16 -8 -19 -19 -3 -11 -10 -17 -15 -14 -5 3 -7 12 -5 18 3 7 1 19 -4 27
-7 12 -11 12 -24 -2 -14 -14 -14 -19 -1 -43 15 -29 12 -56 -6 -56 -6 0 -6 6 1
14 7 9 8 17 2 20 -5 3 -12 0 -14 -6 -3 -7 -5 27 -5 75 1 62 5 90 14 94 7 2 12
10 10 16 -1 7 -1 9 1 5 3 -5 13 -8 24 -8z m114 10 c3 -5 1 -10 -4 -10 -6 0
-11 5 -11 10 0 6 2 10 4 10 3 0 8 -4 11 -10z m1503 -15 c-3 -3 -9 2 -12 12 -6
14 -5 15 5 6 7 -7 10 -15 7 -18z m-513 -5 c3 -5 1 -10 -4 -10 -6 0 -11 5 -11
10 0 6 2 10 4 10 3 0 8 -4 11 -10z m-2395 -10 c0 -5 -5 -10 -11 -10 -5 0 -7 5
-4 10 3 6 8 10 11 10 2 0 4 -4 4 -10z m450 0 c0 -5 -2 -10 -4 -10 -3 0 -8 5
-11 10 -3 6 -1 10 4 10 6 0 11 -4 11 -10z m137 -22 c-3 -7 -5 -2 -5 12 0 14 2
19 5 13 2 -7 2 -19 0 -25z m623 17 c0 -8 -4 -15 -10 -15 -5 0 -10 7 -10 15 0
8 5 15 10 15 6 0 10 -7 10 -15z m1800 5 c0 -5 -2 -10 -4 -10 -3 0 -8 5 -11 10
-3 6 -1 10 4 10 6 0 11 -4 11 -10z m-2250 -14 c0 -3 -4 -8 -10 -11 -5 -3 -10
-1 -10 4 0 6 5 11 10 11 6 0 10 -2 10 -4z m388 -21 c-3 -3 -9 2 -12 12 -6 14
-5 15 5 6 7 -7 10 -15 7 -18z m207 15 c3 -5 1 -10 -4 -10 -6 0 -11 5 -11 10 0
6 2 10 4 10 3 0 8 -4 11 -10z m-1381 -39 c-6 -6 -24 19 -24 34 1 6 7 1 15 -9
8 -11 12 -22 9 -25z m2363 33 c-3 -3 -12 -4 -19 -1 -8 3 -5 6 6 6 11 1 17 -2
13 -5z m-647 -24 c0 -5 -5 -10 -11 -10 -5 0 -7 5 -4 10 3 6 8 10 11 10 2 0 4
-4 4 -10z m680 0 c0 -5 -5 -10 -11 -10 -5 0 -7 5 -4 10 3 6 8 10 11 10 2 0 4
-4 4 -10z m25 0 c3 -5 1 -10 -4 -10 -6 0 -11 5 -11 10 0 6 2 10 4 10 3 0 8 -4
11 -10z m-2452 -20 c3 -11 1 -20 -4 -20 -5 0 -9 9 -9 20 0 11 2 20 4 20 2 0 6
-9 9 -20z m517 10 c0 -5 -2 -10 -4 -10 -3 0 -8 5 -11 10 -3 6 -1 10 4 10 6 0
11 -4 11 -10z m35 0 c3 -5 1 -10 -4 -10 -6 0 -11 5 -11 10 0 6 2 10 4 10 3 0
8 -4 11 -10z m98 -10 c3 -11 1 -20 -4 -20 -5 0 -9 9 -9 20 0 11 2 20 4 20 2 0
6 -9 9 -20z m97 -8 c-26 -4 -50 4 -50 16 0 5 16 4 36 -2 28 -9 31 -12 14 -14z
m1597 22 c-3 -3 -12 -4 -19 -1 -8 3 -5 6 6 6 11 1 17 -2 13 -5z m860 -26 c-3
-7 -5 -2 -5 12 0 14 2 19 5 13 2 -7 2 -19 0 -25z m-887 2 c13 -8 13 -10 -2
-10 -9 0 -20 5 -23 10 -8 13 5 13 25 0z m-1725 -10 c3 -5 1 -10 -4 -10 -6 0
-11 5 -11 10 0 6 2 10 4 10 3 0 8 -4 11 -10z m2560 0 c3 -5 1 -10 -4 -10 -6 0
-11 5 -11 10 0 6 2 10 4 10 3 0 8 -4 11 -10z m-1819 -27 c-10 -10 -19 5 -10
18 6 11 8 11 12 0 2 -7 1 -15 -2 -18z m374 23 c0 -3 -4 -8 -10 -11 -5 -3 -10
-1 -10 4 0 6 5 11 10 11 6 0 10 -2 10 -4z m-1843 -48 c-3 -7 -5 -2 -5 12 0 14
2 19 5 13 2 -7 2 -19 0 -25z m763 22 c0 -5 -5 -10 -11 -10 -5 0 -7 5 -4 10 3
6 8 10 11 10 2 0 4 -4 4 -10z m30 0 c0 -5 -5 -10 -11 -10 -5 0 -7 5 -4 10 3 6
8 10 11 10 2 0 4 -4 4 -10z m1767 -22 c-3 -7 -5 -2 -5 12 0 14 2 19 5 13 2 -7
2 -19 0 -25z m-1381 -4 c1 -9 0 -13 -4 -10 -3 4 -7 14 -8 22 -1 9 0 13 4 10 3
-4 7 -14 8 -22z m724 6 c0 -5 -8 -10 -17 -10 -15 0 -16 2 -3 10 19 12 20 12
20 0z m-1773 -32 c-3 -7 -5 -2 -5 12 0 14 2 19 5 13 2 -7 2 -19 0 -25z m658
22 c3 -5 1 -10 -4 -10 -6 0 -11 5 -11 10 0 6 2 10 4 10 3 0 8 -4 11 -10z
m1915 -22 c0 -5 -4 -8 -10 -8 -5 0 -10 10 -10 23 0 18 2 19 10 7 5 -8 10 -18
10 -22z m-1385 12 c3 -5 13 -6 22 -3 13 5 14 3 6 -12 -6 -10 -20 -19 -32 -20
-16 -1 -18 1 -10 12 8 9 8 13 0 13 -6 0 -11 5 -11 10 0 13 17 13 25 0z m-625
-20 c0 -5 -2 -10 -4 -10 -3 0 -8 5 -11 10 -3 6 -1 10 4 10 6 0 11 -4 11 -10z
m2560 0 c0 -5 -2 -10 -4 -10 -3 0 -8 5 -11 10 -3 6 -1 10 4 10 6 0 11 -4 11
-10z m-3180 -20 c0 -5 -2 -10 -4 -10 -3 0 -8 5 -11 10 -3 6 -1 10 4 10 6 0 11
-4 11 -10z m2560 0 c0 -5 -5 -10 -11 -10 -5 0 -7 5 -4 10 3 6 8 10 11 10 2 0
4 -4 4 -10z m-2496 -16 c3 -8 2 -12 -4 -9 -6 3 -10 10 -10 16 0 14 7 11 14 -7z
m649 9 c-7 -2 -19 -2 -25 0 -7 3 -2 5 12 5 14 0 19 -2 13 -5z m1917 -28 c0 -5
-5 -3 -10 5 -5 8 -10 20 -10 25 0 6 5 3 10 -5 5 -8 10 -19 10 -25z m-135 5 c3
-5 1 -10 -4 -10 -6 0 -11 5 -11 10 0 6 2 10 4 10 3 0 8 -4 11 -10z m-1115 -10
c0 -5 -4 -10 -10 -10 -5 0 -10 5 -10 10 0 6 5 10 10 10 6 0 10 -4 10 -10z
m-1413 -22 c-3 -8 -6 -5 -6 6 -1 11 2 17 5 13 3 -3 4 -12 1 -19z m1693 6 c0
-8 -5 -12 -10 -9 -6 4 -8 11 -5 16 9 14 15 11 15 -7z m160 5 c0 -6 4 -8 9 -5
5 3 12 -6 15 -19 4 -16 11 -23 18 -19 7 5 8 3 4 -5 -6 -9 -13 -8 -29 6 -19 17
-20 17 -14 1 10 -28 1 -21 -20 15 -19 32 -19 33 -1 34 10 1 18 -3 18 -8z m50
-10 c0 -5 -4 -9 -10 -9 -5 0 -10 7 -10 16 0 8 5 12 10 9 6 -3 10 -10 10 -16z
m660 6 c0 -8 -2 -15 -4 -15 -2 0 -6 7 -10 15 -3 8 -1 15 4 15 6 0 10 -7 10
-15z m-1802 -20 c-3 -3 -9 2 -12 12 -6 14 -5 15 5 6 7 -7 10 -15 7 -18z m1977
15 c3 -5 1 -10 -4 -10 -6 0 -11 5 -11 10 0 6 2 10 4 10 3 0 8 -4 11 -10z
m-2075 -10 c0 -5 -5 -10 -11 -10 -5 0 -7 5 -4 10 3 6 8 10 11 10 2 0 4 -4 4
-10z m673 -21 c-9 -9 -12 -7 -10 9 1 14 5 18 11 12 7 -7 6 -14 -1 -21z m445
23 c7 7 12 8 12 2 0 -5 -5 -15 -12 -22 -9 -9 -9 -12 0 -12 7 0 12 -4 12 -10 0
-12 -29 -2 -52 18 -22 18 -13 35 11 22 12 -6 22 -5 29 2z m749 -14 c-3 -8 -6
-5 -6 6 -1 11 2 17 5 13 3 -3 4 -12 1 -19z m-1810 -10 c-3 -8 -6 -5 -6 6 -1
11 2 17 5 13 3 -3 4 -12 1 -19z m593 12 c0 -5 -4 -10 -10 -10 -5 0 -10 5 -10
10 0 6 5 10 10 10 6 0 10 -4 10 -10z m720 0 c0 -5 -4 -10 -10 -10 -5 0 -10 5
-10 10 0 6 5 10 10 10 6 0 10 -4 10 -10z m1247 -12 c-3 -8 -6 -5 -6 6 -1 11 2
17 5 13 3 -3 4 -12 1 -19z m-652 2 c3 -5 1 -10 -4 -10 -6 0 -11 5 -11 10 0 6
2 10 4 10 3 0 8 -4 11 -10z m-2161 -15 c3 -8 1 -15 -4 -15 -6 0 -10 7 -10 15
0 8 2 15 4 15 2 0 6 -7 10 -15z m196 -13 c0 -15 -2 -15 -10 -2 -13 20 -13 33
0 25 6 -3 10 -14 10 -23z m1055 18 c3 -5 1 -10 -4 -10 -6 0 -11 5 -11 10 0 6
2 10 4 10 3 0 8 -4 11 -10z m1605 0 c0 -5 -2 -10 -4 -10 -3 0 -8 5 -11 10 -3
6 -1 10 4 10 6 0 11 -4 11 -10z m-2750 -21 c0 -5 -4 -9 -8 -9 -5 0 -9 7 -9 15
0 8 4 12 9 9 4 -3 8 -9 8 -15z m1098 6 c-2 -5 -10 -10 -20 -10 -10 -1 -14 4
-11 12 6 15 36 14 31 -2z m-360 -9 c-7 -8 -15 -12 -17 -11 -5 6 10 25 20 25 5
0 4 -6 -3 -14z m522 4 c0 -5 -8 -10 -17 -10 -15 0 -16 2 -3 10 19 12 20 12 20
0z m805 0 c3 -5 1 -10 -4 -10 -6 0 -11 5 -11 10 0 6 2 10 4 10 3 0 8 -4 11
-10z m-874 -10 c12 -7 21 -26 26 -53 7 -46 5 -53 -14 -49 -7 2 -2 -9 11 -23
15 -16 34 -25 54 -25 22 0 32 -6 37 -20 4 -13 15 -20 32 -20 22 0 24 -2 13
-15 -8 -9 -16 -12 -19 -6 -6 9 -51 -21 -51 -34 0 -4 12 -5 26 -2 17 3 22 1 15
-6 -5 -5 -27 -13 -48 -16 -25 -4 -39 -12 -41 -24 -4 -20 24 -24 31 -4 4 10 7
10 18 0 11 -11 10 -13 -5 -13 -12 0 -16 -5 -12 -15 3 -9 0 -15 -9 -15 -7 0
-17 -5 -21 -12 -4 -6 -3 -8 4 -4 7 4 10 -1 9 -14 -1 -20 -22 -34 -37 -25 -5 3
-7 12 -3 20 3 10 1 13 -8 10 -10 -4 -14 3 -14 20 0 14 6 25 13 25 10 0 9 5 -3
17 -12 11 -15 25 -10 50 3 18 3 33 0 33 -9 0 -31 -23 -38 -40 -4 -8 -5 -3 -3
13 3 22 1 25 -10 16 -11 -9 -14 -8 -14 5 0 9 -5 16 -11 16 -6 0 -8 -7 -5 -17
4 -9 1 -20 -6 -25 -9 -5 -6 -8 10 -8 12 0 22 -4 22 -10 0 -5 -7 -10 -15 -10
-13 0 -13 -2 -3 -14 7 -7 19 -11 25 -9 7 3 13 0 13 -6 0 -6 -4 -11 -10 -11 -5
0 -10 -6 -10 -14 0 -8 -6 -17 -12 -19 -10 -4 -10 -8 0 -15 8 -5 18 -25 22 -43
7 -32 8 -32 9 -6 1 26 21 40 21 15 0 -10 2 -10 9 0 6 10 10 10 20 -2 9 -11 18
-13 31 -6 15 8 16 5 12 -18 -3 -15 -13 -34 -22 -42 -9 -8 -15 -21 -12 -29 3
-8 0 -11 -7 -7 -7 4 -11 0 -11 -11 0 -10 -9 -24 -21 -31 -18 -12 -20 -11 -17
5 7 33 -15 43 -41 20 l-24 -22 7 28 c4 17 2 27 -5 27 -17 0 -41 28 -29 35 14
9 13 26 -2 23 -6 -2 -19 22 -29 52 -15 47 -18 52 -24 33 -9 -30 -45 -31 -45
-2 0 16 -4 20 -17 15 -15 -5 -14 -3 2 9 13 11 19 25 17 42 -3 22 -1 25 17 20
26 -7 27 3 0 37 -11 14 -18 34 -15 43 3 10 5 22 5 27 -2 18 29 26 57 16 15 -6
30 -7 33 -3 8 10 81 12 81 2 0 -4 -4 -9 -9 -11 -5 -1 -11 -9 -13 -17 -2 -10 7
-15 29 -16 18 0 35 -4 39 -8 13 -13 34 -7 34 9 0 8 5 12 10 9 6 -3 10 -1 10 4
0 17 -20 13 -27 -5 -5 -14 -7 -14 -16 2 -7 13 -7 19 1 22 22 7 12 22 -13 22
-14 0 -25 4 -25 9 0 5 -3 16 -6 24 -4 11 1 14 20 12 14 -2 27 3 30 11 3 9 1
12 -5 9 -6 -4 -7 3 -3 22 4 15 3 25 -1 21 -9 -9 -35 9 -35 23 0 12 7 11 31 -1z
m1002 3 c-7 -2 -21 -2 -30 0 -10 3 -4 5 12 5 17 0 24 -2 18 -5z m-1433 -7 c0
-3 -4 -8 -10 -11 -5 -3 -10 -1 -10 4 0 6 5 11 10 11 6 0 10 -2 10 -4z m790 -6
c0 -5 -4 -10 -10 -10 -5 0 -10 5 -10 10 0 6 5 10 10 10 6 0 10 -4 10 -10z
m-390 -20 c0 -14 -39 -18 -44 -5 -2 7 -2 15 0 18 7 7 44 -4 44 -13z m-265 0
c3 -5 -1 -10 -10 -10 -9 0 -13 5 -10 10 3 6 8 10 10 10 2 0 7 -4 10 -10z m400
0 c-3 -6 4 -10 16 -10 22 0 22 -1 4 -13 -10 -8 -15 -19 -11 -25 5 -8 -5 -11
-28 -10 -29 1 -34 4 -25 15 8 9 8 13 0 13 -19 0 -12 15 12 26 29 15 40 16 32
4z m769 -6 c3 -8 2 -12 -4 -9 -6 3 -10 10 -10 16 0 14 7 11 14 -7z m-1353 -23
c6 19 7 20 8 5 1 -19 2 -19 14 -2 8 11 19 15 30 10 23 -9 21 -21 -5 -34 -22
-11 -22 -10 -4 4 11 9 15 16 10 16 -14 0 -34 -22 -34 -36 0 -15 40 -14 41 1 1
5 5 -5 9 -24 5 -19 5 -44 0 -56 -4 -11 -6 -34 -3 -49 5 -25 3 -27 -15 -22 -16
5 -26 0 -43 -24 -13 -16 -31 -30 -41 -30 -20 0 -25 20 -5 21 11 0 -23 17 -48
23 -5 2 -18 7 -28 11 -15 6 -16 10 -5 16 10 7 10 9 1 9 -7 0 -13 8 -13 18 0
14 -2 15 -10 2 -5 -8 -10 -10 -10 -5 1 6 7 19 15 29 18 24 20 42 3 28 -9 -7
-17 -6 -27 5 -12 13 -11 14 6 9 13 -4 25 0 34 11 12 15 12 16 -5 10 -16 -6
-17 -5 -6 8 7 8 16 13 20 10 5 -3 11 -1 15 5 3 5 11 10 18 10 6 0 2 -7 -9 -15
-17 -13 -18 -14 -1 -15 10 0 20 7 24 16 5 13 8 12 25 -5 20 -22 34 -28 23 -11
-3 6 1 10 9 10 9 0 16 5 16 10 0 12 -22 9 -33 -5 -5 -6 -7 -3 -4 7 3 9 -1 22
-9 28 -8 7 -14 17 -14 23 0 5 10 -3 22 -19 l22 -28 7 25z m389 14 c0 -9 -6
-12 -15 -9 -8 4 -12 10 -9 15 8 14 24 10 24 -6z m-1005 -5 c3 -5 1 -10 -4 -10
-6 0 -11 5 -11 10 0 6 2 10 4 10 3 0 8 -4 11 -10z m2080 0 c3 -5 -1 -10 -9
-10 -9 0 -16 5 -16 10 0 6 4 10 9 10 6 0 13 -4 16 -10z m-807 -13 c8 -10 6
-13 -7 -13 -11 0 -17 6 -14 13 3 7 6 13 8 13 1 0 7 -6 13 -13z m734 -22 c3
-13 2 -22 -2 -20 -4 3 -10 16 -12 30 -3 13 -2 22 2 20 4 -3 10 -16 12 -30z
m-1517 15 c3 -5 -1 -10 -10 -10 -9 0 -13 5 -10 10 3 6 8 10 10 10 2 0 7 -4 10
-10z m2349 -15 c3 -8 1 -15 -3 -15 -5 0 -11 7 -15 15 -3 8 -1 15 3 15 5 0 11
-7 15 -15z m-2957 -1 c-3 -3 -12 -4 -19 -1 -8 3 -5 6 6 6 11 1 17 -2 13 -5z
m27 -9 c-4 -8 -8 -15 -10 -15 -2 0 -4 7 -4 15 0 8 4 15 10 15 5 0 7 -7 4 -15z
m183 -7 c-3 -8 -6 -5 -6 6 -1 11 2 17 5 13 3 -3 4 -12 1 -19z m1987 7 c3 -8 1
-15 -4 -15 -6 0 -10 7 -10 15 0 8 2 15 4 15 2 0 6 -7 10 -15z m-1084 -5 c0 -5
-4 -10 -10 -10 -5 0 -10 5 -10 10 0 6 5 10 10 10 6 0 10 -4 10 -10z m-1185
-10 c3 -5 1 -10 -4 -10 -6 0 -11 5 -11 10 0 6 2 10 4 10 3 0 8 -4 11 -10z
m1375 -10 c-8 -5 -18 -6 -24 -3 -5 4 -1 10 10 13 24 9 34 2 14 -10z m40 16 c0
-3 -4 -8 -10 -11 -5 -3 -10 -1 -10 4 0 6 5 11 10 11 6 0 10 -2 10 -4z m-1315
-36 c3 -5 1 -10 -4 -10 -6 0 -11 5 -11 10 0 6 2 10 4 10 3 0 8 -4 11 -10z
m2165 -16 c0 -11 -5 -10 -20 3 -11 10 -20 18 -20 19 0 1 9 0 20 -3 11 -3 20
-12 20 -19z m-1972 -9 c-3 -3 -9 2 -12 12 -6 14 -5 15 5 6 7 -7 10 -15 7 -18z
m641 11 c9 -10 8 -16 -4 -26 -13 -11 -15 -8 -15 14 0 30 3 32 19 12z m121 4
c0 -5 -4 -10 -10 -10 -5 0 -10 5 -10 10 0 6 5 10 10 10 6 0 10 -4 10 -10z
m1107 -37 c-3 -10 -5 -2 -5 17 0 19 2 27 5 18 2 -10 2 -26 0 -35z m-2011 9
c-10 -2 -22 0 -28 6 -6 6 0 7 19 4 21 -5 23 -7 9 -10z m2094 -17 c0 -5 -5 -3
-10 5 -5 8 -10 20 -10 25 0 6 5 3 10 -5 5 -8 10 -19 10 -25z m-2240 -5 c0 -5
-2 -10 -4 -10 -3 0 -8 5 -11 10 -3 6 -1 10 4 10 6 0 11 -4 11 -10z m1005 0
c-3 -5 -10 -10 -16 -10 -5 0 -9 5 -9 10 0 6 7 10 16 10 8 0 12 -4 9 -10z
m-818 -22 c-3 -8 -6 -5 -6 6 -1 11 2 17 5 13 3 -3 4 -12 1 -19z m-222 2 c3 -5
1 -10 -4 -10 -6 0 -11 5 -11 10 0 6 2 10 4 10 3 0 8 -4 11 -10z m2560 0 c3 -5
1 -10 -4 -10 -6 0 -11 5 -11 10 0 6 2 10 4 10 3 0 8 -4 11 -10z m-1545 -10 c0
-5 -2 -10 -4 -10 -3 0 -8 5 -11 10 -3 6 -1 10 4 10 6 0 11 -4 11 -10z m1380 0
c0 -5 -2 -10 -4 -10 -3 0 -8 5 -11 10 -3 6 -1 10 4 10 6 0 11 -4 11 -10z
m-2715 -20 c3 -5 1 -10 -4 -10 -6 0 -11 5 -11 10 0 6 2 10 4 10 3 0 8 -4 11
-10z m2560 1 c3 -5 1 -12 -5 -16 -5 -3 -10 1 -10 9 0 18 6 21 15 7z m-2235 -5
c0 -3 -4 -8 -10 -11 -5 -3 -10 -1 -10 4 0 6 5 11 10 11 6 0 10 -2 10 -4z m130
-6 c0 -5 -2 -10 -4 -10 -3 0 -8 5 -11 10 -3 6 -1 10 4 10 6 0 11 -4 11 -10z
m1447 -22 c-3 -8 -6 -5 -6 6 -1 11 2 17 5 13 3 -3 4 -12 1 -19z m620 -20 c-3
-7 -5 -2 -5 12 0 14 2 19 5 13 2 -7 2 -19 0 -25z m-2000 -25 c-3 -10 -5 -4 -5
12 0 17 2 24 5 18 2 -7 2 -21 0 -30z m564 13 c-7 -8 -10 -20 -6 -25 3 -7 0 -8
-9 -5 -18 7 -22 24 -5 24 5 0 8 4 5 9 -4 5 0 11 6 14 19 6 22 -1 9 -17z m519
-26 c-7 -16 -16 -27 -21 -25 -4 3 0 19 9 35 21 36 29 30 12 -10z m1477 8 c-3
-7 -5 -2 -5 12 0 14 2 19 5 13 2 -7 2 -19 0 -25z m73 22 c0 -5 -2 -10 -4 -10
-3 0 -8 5 -11 10 -3 6 -1 10 4 10 6 0 11 -4 11 -10z m-2925 -20 c3 -5 1 -10
-4 -10 -6 0 -11 5 -11 10 0 6 2 10 4 10 3 0 8 -4 11 -10z m2560 0 c3 -5 1 -10
-4 -10 -6 0 -11 5 -11 10 0 6 2 10 4 10 3 0 8 -4 11 -10z m-2472 -7 c-7 -2
-19 -2 -25 0 -7 3 -2 5 12 5 14 0 19 -2 13 -5z m801 -28 c-1 -19 2 -35 7 -35
5 0 9 -5 9 -11 0 -5 -4 -7 -10 -4 -5 3 -10 0 -10 -9 0 -8 6 -17 13 -19 9 -4 8
-8 -3 -16 -12 -8 -16 -6 -21 12 -5 20 -7 19 -10 -8 -4 -28 -5 -28 -11 -7 -4
14 -1 28 9 38 10 10 16 31 15 55 -1 21 2 39 6 39 4 0 7 -16 6 -35z m-469 -15
c3 -5 1 -10 -4 -10 -6 0 -11 5 -11 10 0 6 2 10 4 10 3 0 8 -4 11 -10z m445
-16 c0 -8 -4 -12 -10 -9 -5 3 -10 13 -10 21 0 8 5 12 10 9 6 -3 10 -13 10 -21z
m-228 -78 c6 4 8 1 4 -7 -3 -8 -9 -22 -12 -31 -10 -27 -27 -21 -22 6 3 15 0
27 -8 30 -8 3 -14 11 -14 18 0 10 2 10 9 0 7 -11 10 -10 15 3 3 9 4 21 0 26
-3 5 -2 15 3 22 5 7 9 -4 11 -31 2 -27 7 -40 14 -36z m-972 54 c8 -5 11 -10 5
-10 -5 0 -17 5 -25 10 -8 5 -10 10 -5 10 6 0 17 -5 25 -10z m235 0 c3 -5 1
-10 -4 -10 -6 0 -11 5 -11 10 0 6 2 10 4 10 3 0 8 -4 11 -10z m195 -11 c0 -5
8 -9 18 -9 14 0 15 -2 2 -10 -20 -13 -30 -12 -30 1 0 7 -8 18 -17 25 -16 12
-16 12 5 7 12 -3 22 -9 22 -14z m435 11 c3 -5 1 -10 -4 -10 -6 0 -11 5 -11 10
0 6 2 10 4 10 3 0 8 -4 11 -10z m292 -6 c2 -5 -8 -10 -22 -10 -26 -2 -34 11
-12 19 16 7 30 3 34 -9z m796 -27 c2 -20 0 -34 -4 -31 -5 3 -9 0 -9 -5 0 -8
-7 -7 -20 1 -15 10 -17 14 -6 20 8 4 17 20 20 34 9 33 14 28 19 -19z m842 33
c3 -5 1 -10 -4 -10 -6 0 -11 5 -11 10 0 6 2 10 4 10 3 0 8 -4 11 -10z m-875
-9 c0 -12 -20 -25 -27 -18 -7 7 6 27 18 27 5 0 9 -4 9 -9z m215 -11 c3 -5 2
-10 -4 -10 -5 0 -13 5 -16 10 -3 6 -2 10 4 10 5 0 13 -4 16 -10z m-1625 -10
c0 -5 -4 -10 -10 -10 -5 0 -10 5 -10 10 0 6 5 10 10 10 6 0 10 -4 10 -10z
m1080 -3 c0 -7 -9 -13 -20 -13 -25 0 -26 13 -2 19 9 3 18 5 20 6 1 0 2 -5 2
-12z m-263 -82 c5 -46 3 -55 -10 -55 -8 0 -18 -6 -20 -12 -3 -7 -6 -2 -6 12
-1 20 -3 22 -11 10 -8 -13 -10 -12 -10 3 0 10 8 17 20 17 11 0 20 5 20 11 0 6
-10 8 -22 5 -13 -3 -17 -3 -10 0 9 4 10 10 2 19 -8 9 -6 15 7 20 17 7 17 8 -2
15 -17 7 -17 9 -2 9 9 1 17 9 17 19 1 37 21 -18 27 -73z m830 60 c0 -8 -4 -15
-9 -15 -10 0 -11 14 -1 23 9 10 10 9 10 -8z m-612 -5 c3 -5 1 -10 -4 -10 -6 0
-11 5 -11 10 0 6 2 10 4 10 3 0 8 -4 11 -10z m35 -9 c0 -6 -4 -12 -8 -15 -5
-3 -9 1 -9 9 0 8 4 15 9 15 4 0 8 -4 8 -9z m-50 -16 c9 -10 9 -15 1 -15 -6 0
-11 5 -11 11 0 5 -4 7 -10 4 -5 -3 -10 -1 -10 4 0 16 16 13 30 -4z m381 -8
c-10 -9 -11 -8 -5 6 3 10 9 15 12 12 3 -3 0 -11 -7 -18z m-287 1 c-3 -4 -11
-5 -19 -1 -21 7 -19 12 4 10 11 0 18 -5 15 -9z m-739 -18 c12 -13 14 -20 5
-20 -10 0 -10 -3 0 -15 17 -20 29 -19 51 7 11 11 19 16 19 11 0 -6 7 -14 16
-17 8 -3 12 -2 9 4 -3 6 -1 10 4 10 6 0 11 -7 11 -15 0 -8 4 -15 9 -15 5 0 7
-9 4 -20 -4 -14 0 -20 12 -20 13 0 15 -3 6 -13 -6 -8 -7 -17 -3 -22 7 -8 -31
-1 -62 11 -11 4 -16 1 -16 -10 0 -9 -7 -16 -15 -16 -8 0 -15 6 -15 13 0 9 -2
9 -8 0 -10 -17 -67 -1 -67 18 0 8 -10 18 -22 24 -26 11 -32 31 -7 21 11 -4 18
1 21 14 3 11 10 20 17 20 7 0 6 3 -2 8 -13 9 -7 42 8 42 4 0 15 -9 25 -20z
m936 -10 c6 0 3 -7 -5 -16 -9 -8 -16 -20 -16 -25 0 -5 -4 -9 -9 -9 -17 0 -17
34 -2 57 12 15 17 17 19 7 2 -8 8 -14 13 -14z m-1411 -7 c0 -21 -3 -24 -9 -14
-5 8 -7 20 -4 28 8 21 13 15 13 -14z m27 5 c-3 -8 -6 -5 -6 6 -1 11 2 17 5 13
3 -3 4 -12 1 -19z m1708 -16 c-8 -2 -11 -10 -8 -18 3 -8 0 -14 -7 -14 -8 0
-10 -8 -7 -21 4 -16 3 -18 -9 -8 -8 7 -14 7 -14 1 0 -5 -6 -12 -14 -15 -11 -5
-12 1 -3 30 6 20 19 38 29 41 10 2 18 14 18 25 0 20 0 20 14 1 12 -16 12 -19
1 -22z m-1765 18 c0 -5 -2 -10 -4 -10 -3 0 -8 5 -11 10 -3 6 -1 10 4 10 6 0
11 -4 11 -10z m393 -15 c4 -9 -1 -11 -14 -8 -10 3 -19 11 -19 19 0 16 26 8 33
-11z m34 3 c-3 -8 -6 -5 -6 6 -1 11 2 17 5 13 3 -3 4 -12 1 -19z m643 12 c0
-5 -4 -10 -10 -10 -5 0 -10 5 -10 10 0 6 5 10 10 10 6 0 10 -4 10 -10z m175 0
c-3 -5 -1 -10 6 -10 7 0 10 -2 7 -5 -7 -8 -38 5 -38 16 0 5 7 9 16 9 8 0 12
-4 9 -10z m795 0 c0 -5 -2 -10 -4 -10 -3 0 -8 5 -11 10 -3 6 -1 10 4 10 6 0
11 -4 11 -10z m-1160 -30 c0 -5 -5 -10 -11 -10 -5 0 -7 5 -4 10 3 6 8 10 11
10 2 0 4 -4 4 -10z m134 -21 c-8 -14 -24 -10 -24 6 0 9 6 12 15 9 8 -4 12 -10
9 -15z m296 1 c-6 -11 -15 -18 -21 -15 -15 10 -11 23 9 28 9 3 18 5 20 6 1 0
-2 -8 -8 -19z m66 -8 c-17 -16 -18 -16 -5 5 7 12 15 20 18 17 3 -2 -3 -12 -13
-22z m148 10 c3 -5 -1 -9 -9 -9 -8 0 -15 4 -15 9 0 4 4 8 9 8 6 0 12 -4 15 -8z
m-1139 -12 c3 -5 1 -10 -4 -10 -6 0 -11 5 -11 10 0 6 2 10 4 10 3 0 8 -4 11
-10z m15 -30 c0 -5 -5 -10 -11 -10 -5 0 -7 5 -4 10 3 6 8 10 11 10 2 0 4 -4 4
-10z m531 1 c6 11 9 10 15 -4 3 -9 4 -24 1 -32 -4 -8 -2 -17 3 -20 5 -3 8 -33
7 -66 -2 -47 -6 -63 -20 -71 -17 -9 -17 -11 -1 -36 12 -19 14 -27 5 -30 -9 -3
-9 -7 0 -18 9 -11 9 -14 -1 -14 -7 0 -10 -8 -7 -19 4 -15 0 -19 -16 -16 -11 3
-27 0 -36 -5 -14 -8 -13 -10 4 -11 11 -1 23 -1 28 0 4 0 7 -4 7 -10 0 -5 4 -8
9 -5 13 8 23 -26 12 -37 -7 -7 -7 -15 1 -25 16 -19 10 -82 -9 -104 -14 -15
-13 -20 6 -52 20 -31 20 -35 6 -50 -9 -9 -12 -16 -7 -16 5 0 9 -7 9 -15 0 -8
-7 -15 -14 -15 -8 0 -11 5 -8 10 3 6 -3 10 -14 10 -12 0 -21 -5 -21 -11 0 -5
4 -8 9 -5 5 3 11 -3 14 -14 4 -16 2 -18 -13 -10 -9 5 -21 6 -25 2 -4 -4 -4 4
0 16 6 22 5 23 -17 17 -31 -10 -47 -26 -30 -32 6 -3 12 -12 12 -21 0 -15 -2
-15 -10 -2 -8 13 -10 12 -10 -3 0 -10 -4 -15 -10 -12 -5 3 -8 22 -5 41 5 37
-9 45 -31 17 -11 -14 -13 -14 -9 -2 3 8 1 26 -4 40 -10 24 -10 24 -10 -5 -1
-22 -4 -27 -12 -19 -12 12 4 53 21 53 6 0 10 7 10 15 0 13 11 19 31 17 3 -1 6
4 6 11 0 7 4 20 8 30 4 9 3 17 -3 17 -5 0 -12 7 -15 14 -4 10 -1 13 7 10 7 -3
21 3 30 12 14 14 15 19 4 25 -20 13 -28 11 -22 -6 4 -8 1 -15 -6 -15 -6 0 -8
5 -5 10 3 6 2 10 -3 10 -6 0 -12 -7 -16 -15 -6 -17 -26 -21 -26 -5 0 12 50 39
70 38 35 -2 60 3 60 11 0 5 -9 7 -20 4 -29 -8 -80 16 -73 33 3 8 0 21 -7 29
-27 32 1 26 31 -6 17 -19 27 -27 23 -19 -14 25 -13 40 2 40 17 0 18 17 2 23
-10 4 -9 8 2 16 12 9 12 11 -3 17 -9 3 -15 10 -12 15 3 4 11 6 18 3 7 -2 21 4
31 15 17 19 17 20 -2 18 -11 0 -18 -6 -15 -13 3 -7 -4 -10 -20 -7 -14 3 -28 0
-31 -6 -12 -18 -24 -12 -19 9 4 14 -1 22 -20 29 -34 13 -44 31 -23 46 15 12
15 13 0 19 -9 3 -21 3 -26 -1 -6 -3 -8 -1 -4 5 3 6 2 13 -3 17 -6 3 -7 13 -4
23 5 14 3 15 -8 5 -16 -16 -39 -17 -39 -2 0 6 7 9 15 5 8 -3 15 -1 15 4 0 6
10 10 23 11 12 0 16 3 10 6 -7 2 -13 9 -13 14 0 4 7 6 15 3 8 -4 15 -15 15
-26 0 -10 4 -17 9 -13 6 3 8 14 6 25 -2 11 -1 19 3 19 26 -4 52 3 47 11 -4 6
-16 8 -28 4 -19 -6 -20 -5 -9 9 11 13 17 14 33 4 16 -10 23 -8 46 15 21 22 30
25 46 16 15 -7 22 -7 28 3z m464 -1 c3 -5 1 -10 -4 -10 -6 0 -11 5 -11 10 0 6
2 10 4 10 3 0 8 -4 11 -10z m174 -18 c7 -14 6 -19 -4 -19 -8 0 -12 4 -9 8 9
15 -15 19 -29 4 -9 -8 -19 -15 -24 -15 -10 1 37 40 48 40 4 0 13 -8 18 -18z
m183 -24 c-8 -8 -9 -4 -5 13 4 13 8 18 11 10 2 -7 -1 -18 -6 -23z m-1299 1 c4
-16 3 -18 -8 -9 -9 8 -14 8 -17 0 -2 -7 -10 -5 -23 5 -16 12 -17 14 -2 9 9 -3
17 -1 17 5 0 20 27 12 33 -10z m772 11 c3 -5 -1 -10 -10 -10 -9 0 -13 5 -10
10 3 6 8 10 10 10 2 0 7 -4 10 -10z m450 -3 c7 -8 10 -19 6 -25 -4 -6 -11 -1
-18 14 -12 27 -8 31 12 11z m-292 -4 c-7 -2 -19 -2 -25 0 -7 3 -2 5 12 5 14 0
19 -2 13 -5z m-886 -9 c-3 -3 -12 -4 -19 -1 -8 3 -5 6 6 6 11 1 17 -2 13 -5z
m186 -24 c5 -21 3 -22 -48 -24 -37 -1 -49 30 -13 37 46 9 56 7 61 -13z m328 0
c6 0 8 4 5 8 -2 4 4 8 13 8 16 0 17 -4 7 -21 -6 -11 -15 -23 -21 -27 -7 -5 -7
-8 0 -8 12 0 40 -59 32 -67 -4 -3 -17 -3 -31 1 -18 4 -26 14 -28 34 -4 34 4
101 9 85 3 -7 9 -13 14 -13z m-415 -25 c8 -13 13 -29 9 -35 -3 -5 1 -10 10
-10 13 0 14 -2 3 -14 -7 -8 -15 -12 -18 -11 -3 2 -6 -5 -6 -15 0 -10 4 -17 7
-14 4 2 10 1 13 -4 3 -5 -13 -9 -36 -9 -22 0 -37 2 -32 6 15 11 16 41 1 56
-18 17 -31 7 -16 -11 9 -10 7 -15 -5 -20 -9 -3 -16 -12 -16 -20 0 -14 -21 -19
-33 -8 -3 4 1 17 9 29 15 23 14 23 -20 20 -20 -2 -39 1 -42 7 -4 7 -2 8 4 4 7
-4 12 -3 12 3 0 5 -6 12 -12 14 -10 4 -10 6 0 6 7 1 15 -6 18 -14 5 -13 9 -12
25 6 10 12 16 26 13 30 -5 9 23 13 60 9 11 -1 15 3 12 9 -15 23 24 10 40 -14z
m-145 -12 c13 -16 12 -17 -3 -4 -17 13 -22 21 -14 21 2 0 10 -8 17 -17z m1085
-50 c-10 -10 -19 5 -10 18 6 11 8 11 12 0 2 -7 1 -15 -2 -18z m-141 -13 c3 -5
1 -10 -4 -10 -6 0 -11 5 -11 10 0 6 2 10 4 10 3 0 8 -4 11 -10z m-1039 -38
c-3 -2 -13 1 -23 7 -11 6 -13 11 -5 11 7 0 10 6 7 13 -4 6 1 3 9 -7 9 -11 14
-21 12 -24z m294 18 c0 -5 -5 -10 -11 -10 -5 0 -7 5 -4 10 3 6 8 10 11 10 2 0
4 -4 4 -10z m90 -30 c0 -5 7 -10 15 -10 22 0 18 -28 -5 -35 -10 -3 -27 -2 -37
3 -10 5 -24 7 -32 4 -12 -4 -12 -3 0 10 11 13 16 13 27 1 7 -7 19 -13 25 -13
7 0 4 5 -5 11 -10 5 -15 16 -12 24 7 17 24 20 24 5z m1033 -25 c4 -8 2 -17 -3
-20 -6 -4 -10 3 -10 14 0 25 6 27 13 6z m-713 -19 c0 -3 -4 -8 -10 -11 -5 -3
-10 -1 -10 4 0 6 5 11 10 11 6 0 10 -2 10 -4z m610 -26 c0 -5 -5 -10 -11 -10
-5 0 -7 5 -4 10 3 6 8 10 11 10 2 0 4 -4 4 -10z m-330 -35 c0 -8 -4 -15 -10
-15 -5 0 -7 7 -4 15 4 8 8 15 10 15 2 0 4 -7 4 -15z m-100 -79 c0 -2 -7 -7
-16 -10 -8 -3 -12 -2 -9 4 6 10 25 14 25 6z m-236 -41 c3 -8 1 -15 -4 -15 -6
0 -10 7 -10 15 0 8 2 15 4 15 2 0 6 -7 10 -15z m264 3 c-4 -22 13 -58 27 -58
9 0 12 6 8 18 -5 14 -3 13 10 -3 14 -18 17 -19 29 -4 16 20 88 35 88 19 0 -6
-4 -9 -8 -6 -17 10 -34 -11 -27 -33 6 -20 9 -21 23 -8 18 15 42 12 42 -5 0 -5
-9 -7 -19 -3 -26 8 -39 -15 -17 -30 14 -11 15 -13 2 -18 -9 -4 -19 0 -23 8 -6
10 -13 11 -23 5 -13 -8 -13 -10 1 -10 9 0 19 -7 23 -15 3 -9 12 -12 23 -9 15
5 16 4 3 -5 -13 -10 -13 -12 0 -21 12 -9 12 -10 -5 -8 -11 2 -27 11 -37 21
-10 11 -19 14 -23 7 -9 -15 -44 -12 -61 4 -17 18 -18 46 -1 47 6 0 -3 5 -21
10 -20 6 -36 19 -42 33 -5 13 -15 26 -22 29 -8 3 -4 9 12 16 24 11 24 11 -5 6
-20 -4 -27 -3 -20 3 6 6 21 12 35 15 14 2 26 5 28 6 2 0 2 -5 0 -11z m-164
-34 c3 -8 2 -12 -4 -9 -6 3 -10 10 -10 16 0 14 7 11 14 -7z m73 1 c4 -5 3 -7
-2 -3 -4 4 -13 3 -20 -2 -8 -6 -18 -5 -31 5 -18 14 -17 15 14 13 19 -1 36 -7
39 -13z m573 -5 c0 -5 -2 -10 -4 -10 -3 0 -8 5 -11 10 -3 6 -1 10 4 10 6 0 11
-4 11 -10z m-21 -19 c16 -12 20 -21 12 -25 -14 -9 -31 1 -31 19 0 7 -6 16 -12
18 -7 3 -8 6 -3 6 6 0 21 -8 34 -18z m-986 -6 c6 -15 -10 -32 -20 -21 -4 3 -1
6 7 6 10 0 10 3 0 15 -7 9 -8 15 -2 15 5 0 12 -7 15 -15z m481 -11 c14 -15 26
-31 26 -35 0 -5 7 -9 15 -9 8 0 15 -4 15 -9 0 -5 -7 -14 -15 -21 -12 -10 -15
-10 -15 3 0 8 -10 17 -22 20 -29 8 -36 1 -9 -8 28 -9 27 -28 -1 -20 -20 5 -21
4 -8 -7 15 -14 40 -53 40 -63 0 -4 -6 -3 -12 1 -10 6 -10 5 0 -8 8 -10 26 -14
51 -13 27 2 41 -3 49 -15 10 -16 7 -18 -19 -16 -17 1 -34 8 -39 15 -6 10 -10
9 -18 -5 -8 -15 -14 -16 -23 -7 -6 6 -18 9 -25 6 -10 -4 -12 0 -8 11 3 9 1 16
-6 16 -6 0 -9 4 -6 9 4 5 0 12 -6 15 -7 4 -3 4 10 2 14 -3 22 1 22 11 0 8 -5
11 -12 7 -6 -4 -8 -3 -5 3 4 6 0 16 -8 23 -7 6 -11 18 -8 26 3 9 -1 14 -13 14
-16 0 -16 2 -4 10 19 12 7 22 -27 23 -15 0 -22 2 -15 4 6 3 12 8 12 13 0 5 -6
10 -12 13 -7 2 -5 3 5 2 9 -2 17 1 17 6 0 19 49 8 74 -17z m-114 -36 c0 -4 -7
-5 -15 -2 -8 4 -12 10 -9 15 3 5 0 9 -5 9 -6 0 -11 8 -11 18 0 14 4 12 20 -8
11 -14 20 -28 20 -32z m560 22 c12 -16 18 -30 13 -30 -4 0 -16 14 -25 30 -22
39 -15 39 12 0z m-720 0 c0 -5 -5 -10 -11 -10 -5 0 -7 5 -4 10 3 6 8 10 11 10
2 0 4 -4 4 -10z m-186 -15 c4 -10 -1 -15 -15 -15 -17 0 -18 2 -7 15 16 18 15
18 22 0z m793 -17 c-3 -8 -6 -5 -6 6 -1 11 2 17 5 13 3 -3 4 -12 1 -19z m133
-12 c0 -2 -7 -7 -16 -10 -8 -3 -12 -2 -9 4 6 10 25 14 25 6z m-130 -16 c0 -5
-4 -10 -10 -10 -5 0 -10 5 -10 10 0 6 5 10 10 10 6 0 10 -4 10 -10z m-276 -26
c3 -8 1 -24 -4 -36 -6 -16 -9 -18 -9 -7 -1 9 -8 22 -16 29 -20 17 -19 25 4 27
11 1 22 -5 25 -13z m481 -3 c-4 -13 0 -23 11 -29 9 -5 13 -12 8 -15 -5 -3 -16
0 -25 6 -12 9 -14 18 -8 35 10 27 23 30 14 3z m-25 -5 c0 -2 -6 -9 -13 -15
-10 -8 -14 -7 -14 4 0 8 6 15 14 15 7 0 13 -2 13 -4z m-720 -33 c-12 -8 -24
-12 -28 -8 -9 9 28 36 40 29 5 -4 0 -13 -12 -21z m372 12 c0 -5 -5 -11 -11
-13 -6 -2 -11 4 -11 13 0 9 5 15 11 13 6 -2 11 -8 11 -13z m-50 -17 c-11 -11
-32 -3 -32 12 0 4 9 6 21 3 13 -4 17 -9 11 -15z m173 -6 c-8 -8 -25 10 -19 20
4 6 9 5 15 -3 4 -7 6 -15 4 -17z m-210 -2 c3 -5 1 -10 -4 -10 -6 0 -11 5 -11
10 0 6 2 10 4 10 3 0 8 -4 11 -10z m99 -31 c-2 -5 -14 -1 -24 9 -26 22 -25 24
5 10 13 -6 22 -15 19 -19z m37 16 c5 4 6 -1 2 -10 -5 -13 -7 -14 -14 -3 -5 7
-8 18 -8 23 0 6 3 4 6 -3 2 -6 9 -10 14 -7z m309 -10 c9 -10 9 -15 1 -15 -6 0
-14 -1 -18 -2 -3 -2 -7 5 -9 15 -3 21 9 22 26 2z m-50 -15 c0 -5 -2 -10 -4
-10 -3 0 -8 5 -11 10 -3 6 -1 10 4 10 6 0 11 -4 11 -10z m-755 -28 c0 -7 -3
-11 -6 -9 -4 1 -16 -7 -28 -17 -12 -11 -24 -16 -28 -13 -3 4 -1 7 5 7 7 0 12
7 12 15 0 8 7 15 16 15 9 0 12 5 8 11 -4 7 -1 10 7 7 8 -3 14 -10 14 -16z
m319 5 c4 4 4 0 1 -10 -5 -12 2 -22 24 -34 18 -10 29 -24 26 -31 -3 -9 1 -11
15 -7 15 5 20 2 20 -13 0 -11 7 -22 15 -26 23 -8 18 -21 -10 -22 -14 -1 -22 2
-19 7 3 5 -2 9 -12 9 -11 0 -15 -6 -11 -19 2 -10 0 -26 -6 -36 -7 -14 -5 -22
9 -33 18 -13 18 -14 -1 -10 -23 4 -39 69 -21 90 9 11 8 11 -3 1 -12 -11 -19
-9 -38 9 -13 12 -23 16 -23 10 0 -6 -7 -9 -15 -6 -21 9 -19 25 5 31 32 8 23
23 -10 17 -20 -4 -30 -2 -30 5 0 7 5 9 12 5 7 -4 8 -3 4 5 -10 16 36 71 50 60
6 -5 14 -6 18 -2z m118 0 c25 -4 31 -14 24 -33 -5 -13 -9 -15 -18 -6 -7 7 -19
12 -27 12 -12 0 -13 -3 -4 -8 9 -6 7 -11 -8 -20 -17 -11 -20 -9 -25 18 -4 16
-12 30 -20 30 -7 0 -15 4 -18 8 -5 8 54 7 96 -1z m-497 -7 c3 -5 1 -10 -4 -10
-6 0 -11 5 -11 10 0 6 2 10 4 10 3 0 8 -4 11 -10z m650 -15 c0 -14 -3 -25 -7
-25 -10 0 -10 34 -1 43 3 4 7 7 7 7 1 0 1 -11 1 -25z m185 -5 c-8 -5 -17 -7
-19 -4 -3 3 1 9 9 14 8 5 17 7 19 4 3 -3 -1 -9 -9 -14z m-560 -23 c0 -2 -10
-12 -22 -23 l-23 -19 19 23 c18 21 26 27 26 19z m-85 -17 c3 -5 -1 -10 -10
-10 -9 0 -13 5 -10 10 3 6 8 10 10 10 2 0 7 -4 10 -10z m479 2 c-6 -4 -13 -14
-16 -22 -4 -12 -7 -10 -17 8 -11 20 -10 22 16 22 15 0 23 -4 17 -8z m116 -2
c0 -5 -5 -10 -11 -10 -5 0 -7 5 -4 10 3 6 8 10 11 10 2 0 4 -4 4 -10z m-780
-10 c0 -5 -5 -10 -11 -10 -5 0 -7 5 -4 10 3 6 8 10 11 10 2 0 4 -4 4 -10z
m494 -5 c-4 -8 -10 -15 -14 -15 -4 0 -10 7 -14 15 -4 10 1 15 14 15 13 0 18
-5 14 -15z m-213 -22 c-12 -8 -25 -13 -28 -10 -9 10 5 23 28 24 l22 2 -22 -16z
m334 -3 c-3 -11 -3 -20 2 -20 4 0 14 -10 22 -22 13 -22 13 -22 -4 -8 -17 13
-18 13 -13 -1 4 -9 -2 -20 -13 -27 -18 -11 -18 -11 -7 8 10 16 9 25 -6 51 -17
28 -17 32 -3 26 10 -4 17 -2 17 3 0 6 3 10 6 10 3 0 2 -9 -1 -20z m65 5 c0 -8
-2 -15 -4 -15 -2 0 -6 7 -10 15 -3 8 -1 15 4 15 6 0 10 -7 10 -15z m-323 -43
c-22 -5 -12 -22 14 -22 10 0 19 -5 19 -11 0 -6 -6 -9 -12 -6 -7 2 -24 8 -38
12 -23 7 -24 6 -11 -9 12 -15 12 -19 1 -26 -7 -4 -20 -6 -29 -3 -13 4 -13 3
-2 -5 9 -7 11 -15 4 -27 -7 -12 -13 -14 -17 -6 -4 6 -2 11 5 11 8 0 8 4 -2 16
-10 13 -10 17 1 24 7 4 20 5 29 2 13 -5 13 -3 -2 12 -9 10 -14 22 -11 28 9 14
47 27 59 20 6 -4 2 -8 -8 -10z m483 -26 c0 -17 -24 -38 -33 -29 -13 12 -7 22
10 16 12 -5 15 -2 10 10 -3 9 -2 17 3 17 6 0 10 -6 10 -14z m-544 -8 c4 -6 3
-8 -4 -4 -6 3 -13 2 -17 -4 -3 -5 -12 -10 -18 -10 -7 0 -3 7 7 15 24 18 23 18
32 3z m154 -5 c0 -15 2 -16 10 -3 8 12 10 12 10 -5 0 -16 2 -17 10 -5 5 8 11
12 14 9 3 -3 -6 -16 -21 -29 -17 -15 -24 -17 -20 -7 3 9 -1 21 -9 27 -16 14
-19 30 -4 30 6 0 10 -8 10 -17z m285 -22 c-3 -5 -1 -12 5 -16 5 -3 10 2 11 12
0 11 2 13 6 5 3 -7 16 -17 29 -22 13 -5 24 -14 24 -20 0 -15 -40 -12 -40 3 -1
7 -6 4 -15 -6 -13 -18 -14 -18 -25 3 -11 20 -8 50 5 50 4 0 4 -4 0 -9z m123
-19 c6 -18 -15 -14 -22 4 -4 10 -1 14 6 12 6 -2 14 -10 16 -16z m-465 2 c3 -4
2 -16 -4 -27 -8 -13 -8 -17 0 -13 5 4 15 -3 21 -14 6 -11 16 -20 22 -20 7 0 6
5 -2 15 -7 9 -8 15 -2 15 21 0 21 -31 -1 -51 -20 -19 -20 -20 -3 -17 13 2 20
-4 22 -19 3 -16 -1 -23 -12 -23 -10 0 -14 6 -10 15 3 8 3 15 0 15 -3 0 -12 -7
-20 -15 -16 -15 -64 -21 -64 -7 0 4 -12 15 -27 24 -26 16 -27 17 -6 18 16 0
21 4 17 15 -4 8 -2 15 4 15 5 0 18 12 27 27 17 25 17 26 0 19 -16 -6 -16 -4
-4 10 12 15 11 16 -11 10 -19 -6 -21 -5 -10 3 17 12 53 14 63 5z m227 -9 c0
-8 -4 -15 -10 -15 -5 0 -10 7 -10 15 0 8 5 15 10 15 6 0 10 -7 10 -15z m-116
-36 c-31 -12 -40 -9 -20 6 10 8 24 11 29 8 6 -4 2 -10 -9 -14z m327 -12 c-10
-9 -11 -8 -5 6 3 10 9 15 12 12 3 -3 0 -11 -7 -18z m-217 -14 c3 -8 -1 -10
-12 -6 -9 3 -14 3 -10 -2 4 -4 3 -14 -3 -21 -6 -8 -9 -20 -6 -28 7 -17 -18
-54 -29 -43 -4 4 -2 7 4 7 7 0 12 5 12 11 0 6 -10 8 -22 5 l-23 -6 23 11 c24
13 28 24 12 34 -6 4 -8 11 -5 16 4 5 1 9 -5 9 -7 0 -6 5 2 14 16 16 56 16 62
-1z m161 7 c3 -5 -1 -10 -10 -10 -9 0 -13 5 -10 10 3 6 8 10 10 10 2 0 7 -4
10 -10z m-290 -30 c7 6 15 2 24 -13 8 -12 10 -19 6 -14 -5 4 -17 0 -27 -10
-21 -19 -23 -18 -32 22 -6 24 -5 28 5 18 8 -8 17 -9 24 -3z m23 -66 c-3 -2
-15 -6 -29 -8 -13 -2 -25 -5 -27 -5 -1 -1 4 -14 13 -31 8 -16 15 -36 15 -45 0
-23 -38 3 -42 30 -2 11 -12 21 -23 23 -14 2 -16 1 -7 -6 11 -7 10 -11 0 -20
-11 -8 -14 -7 -15 8 -1 10 10 26 24 35 18 12 23 13 18 4 -3 -8 0 -7 7 2 14 17
47 29 61 21 5 -2 7 -6 5 -8z m-218 -18 c0 -2 -7 -6 -15 -10 -8 -3 -15 -1 -15
4 0 6 7 10 15 10 8 0 15 -2 15 -4z m75 -10 c-16 -12 -17 -16 -6 -30 8 -9 9
-16 3 -16 -17 0 -26 41 -11 51 23 14 34 10 14 -5z m305 4 c0 -5 -5 -10 -11
-10 -5 0 -7 5 -4 10 3 6 8 10 11 10 2 0 4 -4 4 -10z m-105 -10 c-3 -5 -11 -10
-16 -10 -6 0 -7 5 -4 10 3 6 11 10 16 10 6 0 7 -4 4 -10z m-185 -10 c0 -5 -2
-10 -4 -10 -3 0 -8 5 -11 10 -3 6 -1 10 4 10 6 0 11 -4 11 -10z m127 4 c-3 -3
-12 -4 -19 -1 -8 3 -5 6 6 6 11 1 17 -2 13 -5z m133 -14 c0 -5 -6 -12 -12 -16
-7 -4 -10 -4 -6 1 4 4 3 14 -4 22 -8 11 -7 12 6 7 9 -3 16 -10 16 -14z m-385
-19 c-6 -5 -25 10 -25 20 0 5 6 4 14 -3 8 -7 12 -15 11 -17z m45 20 c0 -6 -4
-13 -10 -16 -5 -3 -10 1 -10 9 0 9 5 16 10 16 6 0 10 -4 10 -9z m229 -12 c-16
-10 -23 -4 -14 10 3 6 11 8 17 5 6 -4 5 -9 -3 -15z m151 -9 c8 -5 11 -10 5
-10 -5 0 -17 5 -25 10 -8 5 -10 10 -5 10 6 0 17 -5 25 -10z m-294 -26 c14 -4
22 -14 22 -30 0 -23 -17 -35 -19 -14 -1 6 -2 14 -3 19 0 5 -5 13 -10 18 -5 5
-6 3 -2 -4 4 -8 1 -13 -8 -13 -9 0 -16 7 -16 15 0 16 5 18 36 9z m-89 -70 c-3
-3 -12 -4 -19 -1 -8 3 -5 6 6 6 11 1 17 -2 13 -5z m38 -22 c-3 -3 -11 0 -18 7
-9 10 -8 11 6 5 10 -3 15 -9 12 -12z"/>
<path d="M2970 1841 c0 -5 5 -13 10 -16 6 -3 10 -2 10 4 0 5 -4 13 -10 16 -5
3 -10 2 -10 -4z"/>
<path d="M3187 1799 c7 -7 15 -10 18 -7 3 3 -2 9 -12 12 -14 6 -15 5 -6 -5z"/>
<path d="M2990 1790 c0 -5 -7 -10 -15 -10 -9 0 -15 -9 -15 -24 0 -13 -3 -31
-6 -40 -3 -9 -1 -16 5 -16 6 0 11 8 11 18 1 16 2 16 13 0 9 -11 18 -14 27 -8
8 5 18 6 22 4 15 -9 8 7 -12 28 -21 22 -18 38 6 38 8 0 12 5 9 10 -3 6 -15 10
-26 10 -10 0 -19 -4 -19 -10z"/>
<path d="M3180 1765 c7 -9 15 -13 17 -11 7 7 -7 26 -19 26 -6 0 -6 -6 2 -15z"/>
<path d="M3080 1535 c0 -8 4 -15 10 -15 5 0 7 7 4 15 -4 8 -8 15 -10 15 -2 0
-4 -7 -4 -15z"/>
<path d="M2593 1876 c4 -10 1 -13 -9 -9 -7 3 -14 0 -14 -6 0 -6 9 -11 20 -11
11 0 20 -4 20 -8 0 -5 6 -9 14 -9 14 0 14 26 1 47 -10 16 -38 12 -32 -4z"/>
<path d="M2560 1830 c-8 -5 -10 -10 -5 -10 6 0 17 5 25 10 8 5 11 10 5 10 -5
0 -17 -5 -25 -10z"/>
<path d="M2590 1810 c-12 -7 -10 -12 9 -29 26 -23 36 -27 26 -11 -3 6 -1 10 4
10 6 0 11 5 11 11 0 5 -4 7 -10 4 -6 -3 -7 1 -4 9 7 18 -12 21 -36 6z"/>
<path d="M2680 1786 c0 -9 30 -14 35 -6 4 6 -3 10 -14 10 -12 0 -21 -2 -21 -4z"/>
<path d="M2565 1770 c4 -6 11 -8 16 -5 14 9 11 15 -7 15 -8 0 -12 -5 -9 -10z"/>
<path d="M2342 1421 c2 -7 7 -12 11 -12 12 1 9 15 -3 20 -7 2 -11 -2 -8 -8z"/>
<path d="M2602 1280 c19 -30 36 -32 34 -4 -1 18 -7 24 -24 24 -20 0 -21 -2
-10 -20z"/>
<path d="M2680 1090 c0 -5 7 -10 15 -10 8 0 15 5 15 10 0 6 -7 10 -15 10 -8 0
-15 -4 -15 -10z"/>
<path d="M2660 1059 c0 -5 5 -7 10 -4 6 3 10 8 10 11 0 2 -4 4 -10 4 -5 0 -10
-5 -10 -11z"/>
<path d="M2643 989 c0 -25 3 -27 16 -17 9 7 17 13 18 13 1 1 -6 8 -16 17 -16
14 -18 13 -18 -13z"/>
<path d="M2690 947 c0 -8 7 -17 15 -21 8 -3 15 -3 15 0 0 3 -7 12 -15 20 -13
13 -15 13 -15 1z"/>
<path d="M2642 891 c-11 -7 -11 -9 2 -14 10 -4 16 -1 16 8 0 17 -1 17 -18 6z"/>
<path d="M2563 766 c4 -10 7 -21 7 -26 0 -4 14 -10 30 -12 17 -3 30 -1 30 3 0
10 -30 20 -41 13 -5 -3 -9 2 -9 10 0 8 -5 18 -12 22 -8 5 -9 2 -5 -10z"/>
<path d="M2330 1248 c0 -11 12 -10 30 2 12 7 10 9 -8 7 -12 0 -22 -5 -22 -9z"/>
<path d="M3126 853 c-11 -11 -6 -24 6 -17 8 5 9 2 5 -9 -9 -23 0 -21 12 2 8
14 7 20 -3 24 -8 3 -17 3 -20 0z"/>
<path d="M3120 790 c0 -5 5 -10 10 -10 6 0 10 5 10 10 0 6 -4 10 -10 10 -5 0
-10 -4 -10 -10z"/>
<path d="M3075 530 c3 -5 8 -10 11 -10 2 0 4 5 4 10 0 6 -5 10 -11 10 -5 0 -7
-4 -4 -10z"/>
<path d="M3013 318 c3 -16 30 -48 39 -48 5 0 8 10 8 23 0 18 -2 19 -10 7 -8
-13 -10 -13 -10 2 0 9 8 19 18 21 9 3 2 5 -15 6 -21 1 -32 -3 -30 -11z"/>
<path d="M3145 299 c-11 -17 1 -21 15 -4 8 9 8 15 2 15 -6 0 -14 -5 -17 -11z"/>
</g>
</svg>
